<svg width="281" height="212" viewBox="0 0 281 212" fill="none" xmlns="http://www.w3.org/2000/svg">
<path d="M169.105 31.4557V185.268C169.105 188.831 167.691 192.248 165.174 194.767C162.657 197.287 159.244 198.702 155.685 198.702H89.178C85.6188 198.702 82.2053 197.287 79.6885 194.767C77.1717 192.248 75.7578 188.831 75.7578 185.268V31.4557C75.7568 29.6909 76.1032 27.9433 76.7772 26.3126C77.4512 24.6818 78.4396 23.2 79.6858 21.9518C80.9321 20.7036 82.4119 19.7134 84.0406 19.0378C85.6693 18.3622 87.415 18.0145 89.178 18.0145H155.685C157.448 18.0145 159.193 18.3622 160.822 19.0378C162.451 19.7134 163.93 20.7036 165.177 21.9518C166.423 23.2 167.411 24.6818 168.085 26.3126C168.759 27.9433 169.106 29.6909 169.105 31.4557Z" fill="#33A96A"/>
<path d="M154.286 20.2974H90.5718C83.4053 20.2974 77.5957 26.1128 77.5957 33.2865V183.151C77.5957 190.325 83.4053 196.14 90.5718 196.14H154.286C161.452 196.14 167.262 190.325 167.262 183.151V33.2865C167.262 26.1128 161.452 20.2974 154.286 20.2974Z" fill="#473F47"/>
<path d="M164.822 34.7557V179.874C164.788 183.164 163.451 186.305 161.104 188.608C158.756 190.911 155.592 192.187 152.305 192.155H92.6102C90.4295 192.162 88.2844 191.601 86.3856 190.527C84.4815 189.475 82.8928 187.932 81.7839 186.059C80.675 184.186 80.0861 182.051 80.0781 179.874V34.7557C80.1139 31.4639 81.4541 28.321 83.8041 26.0181C86.1542 23.7151 89.3217 22.4406 92.6102 22.4748H102.696V24.2604C102.722 25.4319 103.093 26.5697 103.762 27.5308C104.432 28.492 105.37 29.2336 106.459 29.6625C107.191 29.9511 107.969 30.0993 108.755 30.0995H136.484C138.072 30.1096 139.599 29.4914 140.734 28.3795C141.869 27.2675 142.519 25.7519 142.543 24.1625V22.4748H152.328C155.538 22.4677 158.631 23.6855 160.976 25.8803C162.191 27.0164 163.159 28.3907 163.821 29.9176C164.483 31.4445 164.823 33.0913 164.822 34.7557Z" fill="white"/>
<path opacity="0.31" d="M126.384 121.182H91.6929C91.0902 121.182 90.6016 121.671 90.6016 122.274V122.282C90.6016 122.885 91.0902 123.374 91.6929 123.374H126.384C126.987 123.374 127.475 122.885 127.475 122.282V122.274C127.475 121.671 126.987 121.182 126.384 121.182Z" fill="#33A96A"/>
<path opacity="0.31" d="M126.384 126.538H91.6929C91.0902 126.538 90.6016 127.028 90.6016 127.631V127.638C90.6016 128.242 91.0902 128.731 91.6929 128.731H126.384C126.987 128.731 127.475 128.242 127.475 127.638V127.631C127.475 127.028 126.987 126.538 126.384 126.538Z" fill="#33A96A"/>
<path opacity="0.18" d="M169.104 101.449H75.75V107.318H169.104V101.449Z" fill="#33A96A"/>
<path d="M61.7891 86.6444H175.488C177.511 86.6444 179.45 87.4485 180.88 88.8798C182.31 90.3112 183.113 92.2524 183.113 94.2766C183.113 96.3008 182.31 98.2421 180.88 99.6735C179.45 101.105 177.511 101.909 175.488 101.909H61.7891V86.6444Z" fill="#33A96A"/>
<path d="M153.601 86.6444H61.7891V101.901H153.601V86.6444Z" fill="white"/>
<path d="M167.231 97.0945C169.264 97.0945 170.912 95.445 170.912 93.4102C170.912 91.3755 169.264 89.726 167.231 89.726C165.199 89.726 163.551 91.3755 163.551 93.4102C163.551 95.445 165.199 97.0945 167.231 97.0945Z" stroke="white" stroke-width="1.57687" stroke-miterlimit="10"/>
<path d="M170.595 99.4L169.09 96.5897" stroke="white" stroke-width="1.57687" stroke-miterlimit="10"/>
<path d="M148.181 115.749H92.3628C91.3901 115.749 90.6016 116.539 90.6016 117.512C90.6016 118.486 91.3901 119.275 92.3628 119.275H148.181C149.154 119.275 149.943 118.486 149.943 117.512C149.943 116.539 149.154 115.749 148.181 115.749Z" fill="#33A96A"/>
<path opacity="0.31" d="M126.384 139.618H91.6929C91.0902 139.618 90.6016 140.107 90.6016 140.711V140.718C90.6016 141.321 91.0902 141.811 91.6929 141.811H126.384C126.987 141.811 127.475 141.321 127.475 140.718V140.711C127.475 140.107 126.987 139.618 126.384 139.618Z" fill="#33A96A"/>
<path opacity="0.31" d="M126.384 144.975H91.6929C91.0902 144.975 90.6016 145.464 90.6016 146.067V146.075C90.6016 146.678 91.0902 147.167 91.6929 147.167H126.384C126.987 147.167 127.475 146.678 127.475 146.075V146.067C127.475 145.464 126.987 144.975 126.384 144.975Z" fill="#33A96A"/>
<path d="M148.181 134.178H92.3628C91.3901 134.178 90.6016 134.968 90.6016 135.941C90.6016 136.915 91.3901 137.704 92.3628 137.704H148.181C149.154 137.704 149.943 136.915 149.943 135.941C149.943 134.968 149.154 134.178 148.181 134.178Z" fill="#33A96A"/>
<path opacity="0.31" d="M126.384 158.047H91.6929C91.0902 158.047 90.6016 158.536 90.6016 159.139V159.147C90.6016 159.75 91.0902 160.239 91.6929 160.239H126.384C126.987 160.239 127.475 159.75 127.475 159.147V159.139C127.475 158.536 126.987 158.047 126.384 158.047Z" fill="#33A96A"/>
<path opacity="0.31" d="M126.384 163.411H91.6929C91.0902 163.411 90.6016 163.9 90.6016 164.504V164.511C90.6016 165.115 91.0902 165.604 91.6929 165.604H126.384C126.987 165.604 127.475 165.115 127.475 164.511V164.504C127.475 163.9 126.987 163.411 126.384 163.411Z" fill="#33A96A"/>
<path d="M148.181 152.615H92.3628C91.3901 152.615 90.6016 153.404 90.6016 154.378C90.6016 155.351 91.3901 156.141 92.3628 156.141H148.181C149.154 156.141 149.943 155.351 149.943 154.378C149.943 153.404 149.154 152.615 148.181 152.615Z" fill="#33A96A"/>
<g opacity="0.41">
<path opacity="0.41" d="M157.13 64.3504C161.195 64.3457 165.235 64.9787 169.105 66.2265V60.7189C162.499 58.8707 155.556 58.5777 148.818 59.8629C142.08 61.148 135.731 63.9763 130.267 68.1266C124.803 72.2769 120.373 77.6365 117.323 83.786C114.273 89.9356 112.686 96.7082 112.686 103.574C112.686 110.44 114.273 117.212 117.323 123.362C120.373 129.511 124.803 134.871 130.267 139.021C135.731 143.172 142.08 146 148.818 147.285C155.556 148.57 162.499 148.277 169.105 146.429V140.921C163.717 142.652 158.019 143.194 152.402 142.511C146.786 141.827 141.383 139.934 136.567 136.962C131.751 133.99 127.635 130.008 124.502 125.292C121.369 120.576 119.294 115.236 118.418 109.64C117.543 104.045 117.889 98.3259 119.432 92.8768C120.975 87.4277 123.679 82.3778 127.358 78.0742C131.036 73.7707 135.602 70.3156 140.741 67.9465C145.881 65.5775 151.472 64.3507 157.13 64.3504Z" fill="url(#paint0_linear_3540_18514)"/>
</g>
<path d="M159.502 145.924C150.708 145.924 142.112 143.313 134.8 138.422C127.489 133.53 121.792 126.578 118.428 118.445C115.065 110.311 114.187 101.362 115.906 92.729C117.625 84.096 121.863 76.1674 128.085 69.9461C134.306 63.7249 142.231 59.4904 150.857 57.7786C159.483 56.0668 168.423 56.9544 176.545 60.3293C184.667 63.7041 191.606 69.4145 196.485 76.738C201.364 84.0616 203.964 92.6691 203.955 101.472C203.929 113.261 199.236 124.56 190.904 132.892C182.571 141.224 171.28 145.91 159.502 145.924ZM159.502 62.2031C151.754 62.2031 144.18 64.5024 137.737 68.8103C131.294 73.1183 126.272 79.2415 123.305 86.406C120.338 93.5705 119.559 101.455 121.067 109.062C122.575 116.67 126.303 123.659 131.778 129.146C137.254 134.633 144.232 138.372 151.83 139.891C159.428 141.41 167.305 140.639 174.466 137.677C181.627 134.716 187.75 129.695 192.061 123.251C196.372 116.807 198.677 109.228 198.686 101.472C198.682 91.0683 194.553 81.0916 187.206 73.733C179.859 66.3745 169.895 62.2357 159.502 62.2257V62.2031Z" fill="#33A96A"/>
<path d="M219.708 167.359C219.108 167.36 218.515 167.241 217.962 167.009C217.409 166.778 216.907 166.438 216.486 166.011L187.358 136.423C186.94 136.001 186.609 135.5 186.385 134.949C186.161 134.399 186.047 133.809 186.051 133.214C186.055 132.62 186.176 132.031 186.407 131.484C186.638 130.936 186.975 130.439 187.398 130.022C187.821 129.604 188.323 129.275 188.874 129.052C189.424 128.829 190.014 128.717 190.608 128.722C191.202 128.728 191.789 128.85 192.336 129.083C192.882 129.316 193.378 129.655 193.793 130.08L222.922 159.667C223.546 160.301 223.969 161.107 224.138 161.981C224.307 162.856 224.214 163.761 223.871 164.583C223.527 165.405 222.949 166.107 222.208 166.601C221.468 167.095 220.598 167.359 219.708 167.359Z" fill="#33A96A"/>
<path d="M233.663 176.762C233.166 177.254 232.576 177.644 231.929 177.907C231.281 178.171 230.588 178.305 229.889 178.3C229.189 178.295 228.498 178.152 227.854 177.879C227.21 177.606 226.626 177.209 226.136 176.709L191.844 141.871C191.653 141.681 191.479 141.474 191.325 141.253C191.235 141.132 191.152 141.012 191.076 140.891C190.832 140.479 190.721 140.002 190.759 139.524C190.797 139.047 190.981 138.593 191.287 138.224C191.953 137.43 192.681 136.69 193.462 136.009C194.36 135.211 195.333 134.502 196.368 133.892C196.79 133.638 197.281 133.524 197.772 133.566C198.262 133.608 198.727 133.804 199.1 134.126C199.203 134.207 199.301 134.295 199.394 134.389L233.746 169.235C234.234 169.735 234.62 170.326 234.88 170.974C235.141 171.623 235.271 172.317 235.263 173.016C235.255 173.715 235.11 174.406 234.835 175.048C234.561 175.691 234.162 176.274 233.663 176.762Z" fill="#473F47"/>
<path opacity="0.18" d="M110.343 55.8066V71.1464C110.343 73.1574 109.547 75.0865 108.13 76.5113C106.712 77.9361 104.788 78.7405 102.779 78.7485H75.7578V48.2045H102.779C104.788 48.2124 106.712 49.0169 108.13 50.4417C109.547 51.8665 110.343 53.7956 110.343 55.8066Z" fill="#33A96A"/>
<path d="M101.439 44.1736H51.1453C46.951 44.1736 43.5508 47.5772 43.5508 51.7757V67.1155C43.5508 71.314 46.951 74.7176 51.1453 74.7176H101.439C105.633 74.7176 109.034 71.314 109.034 67.1155V51.7757C109.034 47.5772 105.633 44.1736 101.439 44.1736Z" fill="white"/>
<path d="M106.74 50.5702C109.762 50.5702 112.211 48.1179 112.211 45.0928C112.211 42.0677 109.762 39.6154 106.74 39.6154C103.717 39.6154 101.268 42.0677 101.268 45.0928C101.268 48.1179 103.717 50.5702 106.74 50.5702Z" fill="#33A96A"/>
<path d="M93.5442 53.9304H57.9878C57.1564 53.9304 56.4824 54.6051 56.4824 55.4373V55.4448C56.4824 56.277 57.1564 56.9517 57.9878 56.9517H93.5442C94.3756 56.9517 95.0496 56.277 95.0496 55.4448V55.4373C95.0496 54.6051 94.3756 53.9304 93.5442 53.9304Z" fill="#33A96A"/>
<path d="M93.5442 61.9696H57.9878C57.1564 61.9696 56.4824 62.6442 56.4824 63.4765V63.484C56.4824 64.3162 57.1564 64.9909 57.9878 64.9909H93.5442C94.3756 64.9909 95.0496 64.3162 95.0496 63.484V63.4765C95.0496 62.6442 94.3756 61.9696 93.5442 61.9696Z" fill="#33A96A"/>
<path d="M230.192 200.495C230.514 200.898 230.708 201.389 230.748 201.903C230.789 202.418 230.674 202.932 230.418 203.381C230.15 203.808 229.754 204.14 229.286 204.328C228.818 204.516 228.303 204.551 227.814 204.428C227.642 204.385 227.482 204.302 227.347 204.187C227.069 203.916 227.024 203.434 226.76 203.162C226.486 202.937 226.156 202.791 225.804 202.74C225.182 202.512 224.597 202.195 224.066 201.799C223.98 201.75 223.905 201.683 223.847 201.603C223.794 201.503 223.765 201.392 223.765 201.279C223.636 200.7 223.724 200.094 224.013 199.576C224.171 199.382 224.365 199.221 224.585 199.101C225 198.844 225.475 198.701 225.962 198.687C226.342 198.713 226.716 198.799 227.069 198.943C228.069 199.231 229.008 199.701 229.839 200.329" fill="#33A96A"/>
<path d="M228.243 195.877L229.922 201.663C229.922 201.663 229.605 203.117 227.829 202.507C226.053 201.896 224.562 197.338 224.562 197.338L228.243 195.877Z" fill="#FCBDBA"/>
<path d="M210.525 207.977C210.067 207.899 209.603 207.866 209.14 207.879C208.907 207.889 208.679 207.946 208.47 208.047C208.26 208.148 208.073 208.291 207.92 208.466C207.7 208.822 207.612 209.243 207.673 209.657C207.734 210.071 207.939 210.45 208.251 210.727C208.883 211.249 209.656 211.569 210.472 211.646C210.967 211.759 211.482 211.759 211.977 211.646C212.602 211.465 213.197 210.945 213.821 211.141C214.094 211.255 214.348 211.41 214.574 211.601C215.001 211.91 215.529 212.045 216.051 211.98C216.574 211.914 217.052 211.652 217.389 211.247C217.57 210.976 217.7 210.675 217.773 210.357C218.036 209.355 217.916 208.097 217.088 207.517C216.109 206.816 215.349 207.299 214.408 207.623C213.153 208.014 211.83 208.135 210.525 207.977Z" fill="#33A96A"/>
<path d="M211.338 202.364L213.792 208.391C213.792 208.391 215.199 209.242 216.2 208.866L217.186 208.459L216.321 200.043L211.338 202.364Z" fill="#FCBDBA"/>
<path d="M193.101 141.095C192.935 140.876 192.717 140.635 192.454 140.673C192.19 140.71 192.145 140.816 191.987 140.771C191.888 140.736 191.804 140.67 191.746 140.582C191.372 140.185 190.955 139.828 190.504 139.52C190.229 139.278 189.898 139.11 189.541 139.03C189.28 139.017 189.022 139.082 188.798 139.216C188.574 139.35 188.395 139.548 188.284 139.784C188.059 140.253 188.004 140.785 188.126 141.291C188.258 141.796 188.461 142.28 188.728 142.73C188.889 143.066 189.094 143.38 189.338 143.664C190.09 144.485 191.34 144.621 192.348 145.126C192.456 145.191 192.577 145.232 192.702 145.246C192.809 145.228 192.91 145.186 192.998 145.122C193.086 145.058 193.157 144.974 193.206 144.877C193.596 144.32 193.832 143.671 193.891 142.993C193.837 142.292 193.56 141.627 193.101 141.095Z" fill="#FCBDBA"/>
<path d="M202.886 134.563C202.765 134.529 202.636 134.542 202.525 134.6C202.462 134.65 202.406 134.709 202.359 134.773C202.148 135 201.802 135.007 201.516 135.135C201.333 135.228 201.171 135.358 201.041 135.518C200.911 135.678 200.817 135.863 200.763 136.062C200.664 136.458 200.62 136.867 200.636 137.275C200.616 137.491 200.639 137.708 200.703 137.915C200.737 138.016 200.799 138.105 200.882 138.172C200.964 138.239 201.064 138.28 201.17 138.292C201.341 138.261 201.503 138.191 201.644 138.089C201.931 137.931 202.263 137.878 202.585 137.938C202.998 138.071 203.392 138.256 203.759 138.488C203.946 138.599 204.159 138.657 204.376 138.657C204.593 138.657 204.807 138.599 204.993 138.488C205.16 138.338 205.291 138.153 205.377 137.945C205.716 137.192 206.13 136.356 205.377 135.745C204.671 135.13 203.809 134.721 202.886 134.563Z" fill="#FCBDBA"/>
<path d="M225.256 162.251C225.08 165.42 224.725 168.577 224.195 171.707C223.517 174.811 223.111 178.337 223.111 178.337L229.381 196.419C229.381 196.419 225.564 198.958 223.111 197.971C220.657 196.984 214.447 183.121 214.447 183.121L212.084 167.352L218.339 160.164L225.256 162.251Z" fill="#473F47"/>
<path d="M207.951 160.993C207.951 160.993 203.48 175.662 203.48 179.474C203.48 183.287 208.84 202.077 208.84 202.077C208.84 202.077 214.658 204.051 216.02 202.077L217.382 200.103L214.108 181.192C214.108 181.192 218.745 171.322 219.565 168.783C220.062 167.218 220.417 165.612 220.626 163.984L207.951 160.993Z" fill="#473F47"/>
<path d="M209.833 120.812C209.311 121.858 208.977 122.988 208.847 124.15C208.788 124.725 208.88 125.305 209.114 125.834C209.348 126.362 209.715 126.821 210.18 127.164C210.464 127.3 210.73 127.472 210.97 127.676C211.813 128.535 210.85 130.095 211.331 131.21C211.525 131.568 211.844 131.843 212.227 131.982C212.61 132.12 213.03 132.114 213.409 131.963C213.779 131.788 214.106 131.534 214.367 131.217C214.627 130.9 214.814 130.53 214.914 130.132C215.13 129.325 215.227 128.489 215.2 127.654L215.283 122.673C215.401 121.565 215.227 120.446 214.779 119.426C214.479 118.9 214.039 118.468 213.506 118.18C212.974 117.893 212.372 117.76 211.768 117.799C210.609 118.047 210.255 119.84 209.833 120.812Z" fill="#FCBDBA"/>
<path d="M192.476 145.676C192.476 145.676 202.02 154.212 202.697 154.212C203.375 154.212 207.612 148.848 207.612 148.848L207.951 160.985C209.129 161.682 210.357 162.291 211.624 162.809C213.686 163.652 216.298 164.436 218.579 164.225C223.215 163.803 225.255 162.251 225.255 162.251L222.402 133.666C222.402 133.666 216.998 129.771 215.154 130.366C213.832 130.602 212.479 130.602 211.157 130.366C208.493 130.019 205.768 133.666 205.768 133.666L202.223 145.322L193.906 142.368C193.363 142.711 192.936 143.211 192.681 143.801C192.425 144.391 192.354 145.044 192.476 145.676Z" fill="#33A96A"/>
<path d="M210.638 115.41C211.639 114.499 213.905 114.122 215.011 114.001C215.862 113.88 216.728 113.943 217.553 114.184C218.377 114.426 219.14 114.842 219.791 115.403C221.597 117.121 221.786 119.923 221.763 122.5C221.74 125.077 221.703 127.842 223.208 129.801C224.503 131.473 226.618 132.167 228.266 133.455C229.08 134.059 229.756 134.83 230.249 135.716C230.742 136.602 231.041 137.583 231.126 138.593C231.51 146.339 219.693 143.016 215.787 141.291C215.095 141.024 214.46 140.63 213.913 140.13C213.335 139.505 212.91 138.755 212.671 137.938C211.754 135.17 211.909 132.158 213.107 129.499C213.288 129.108 213.484 128.618 213.235 128.271C213.099 128.118 212.929 127.999 212.738 127.925C212.239 127.717 211.81 127.371 211.501 126.926C211.193 126.481 211.019 125.957 211 125.416C211.161 124.622 211.518 123.882 212.038 123.261C212.293 122.95 212.469 122.582 212.551 122.189C212.632 121.795 212.616 121.387 212.505 121.001C212.234 120.391 211.587 120.089 211.105 119.645C210.262 118.891 209.652 116.864 210.352 115.78C210.432 115.645 210.528 115.521 210.638 115.41Z" fill="#F6A569"/>
<defs>
<linearGradient id="paint0_linear_3540_18514" x1="103.381" y1="272.666" x2="230.446" y2="-235.869" gradientUnits="userSpaceOnUse">
<stop offset="0.01"/>
<stop offset="0.08" stop-opacity="0.69"/>
<stop offset="0.21" stop-opacity="0.32"/>
<stop offset="1" stop-opacity="0"/>
</linearGradient>
</defs>
</svg>
