<svg width="53" height="53" viewBox="0 0 53 53" fill="none" xmlns="http://www.w3.org/2000/svg">
<circle cx="26.5" cy="26.5" r="26.5" fill="#DADADA"/>
<path d="M26.5017 18C24.0731 18 22.0879 19.9853 22.0879 22.4138C22.0879 24.8424 24.0731 26.8277 26.5017 26.8277C28.9303 26.8277 30.9156 24.8424 30.9156 22.4138C30.9156 19.9853 28.9303 18 26.5017 18Z" fill="white"/>
<path d="M34.0752 30.3549C33.9595 30.0657 33.8053 29.7959 33.6319 29.5453C32.7452 28.2347 31.3768 27.3673 29.8348 27.1553C29.6421 27.136 29.4301 27.1746 29.2759 27.2902C28.4663 27.8877 27.5026 28.1961 26.5003 28.1961C25.4981 28.1961 24.5344 27.8877 23.7248 27.2902C23.5706 27.1746 23.3586 27.1167 23.1659 27.1553C21.6239 27.3673 20.2362 28.2347 19.3688 29.5453C19.1954 29.7959 19.0412 30.085 18.9255 30.3549C18.8677 30.4705 18.887 30.6054 18.9448 30.7211C19.099 30.9909 19.2917 31.2608 19.4652 31.4921C19.735 31.8583 20.0242 32.1859 20.3518 32.4943C20.6217 32.7642 20.93 33.0147 21.2385 33.2653C22.7611 34.4025 24.5922 35 26.4811 35C28.37 35 30.2011 34.4025 31.7237 33.2653C32.0321 33.034 32.3405 32.7642 32.6104 32.4943C32.9187 32.1859 33.2271 31.8583 33.497 31.4921C33.6897 31.2415 33.8632 30.9909 34.0174 30.7211C34.1137 30.6054 34.133 30.4705 34.0752 30.3549Z" fill="white"/>
</svg>
