<svg width="301" height="227" viewBox="0 0 301 227" fill="none" xmlns="http://www.w3.org/2000/svg">
<g clip-path="url(#clip0_704_2046)">
<path opacity="0.18" d="M122.826 42.7076C119.26 51.2948 118.507 61.0435 113.582 68.9263C106.111 80.8875 91.189 85.5105 80.2854 94.4405C69.4466 103.325 62.5619 117.335 63.6428 131.314C64.7236 145.294 74.4207 158.607 87.8513 162.598C92.5058 163.984 97.556 164.33 101.746 166.786C111.089 172.263 112.501 185.724 120.866 192.602C128.349 198.752 139.347 197.99 148.603 195.157C157.858 192.324 166.753 187.723 176.415 187.141C182.177 186.794 187.974 187.902 193.713 187.304C201.027 186.543 207.748 183.062 214.18 179.49C225.365 173.275 237.395 164.966 239.256 152.301C241.388 137.708 228.859 124.475 229.057 109.726C229.148 102.872 232.025 96.2721 232.292 89.4062C232.672 79.9355 227.603 70.4419 219.542 65.4685C212.947 61.3939 204.909 60.3428 198.017 56.7975C188.674 51.9917 182.246 43.0884 174.318 36.2034C159.974 23.7471 131.138 22.6771 122.826 42.7076Z" fill="#33A96A"/>
<path d="M183.654 86.3481C184.857 84.6307 187.387 84.3451 189.363 85.0572C191.338 85.7693 192.921 87.2392 194.561 88.5454C196.202 89.8516 198.089 91.0625 200.186 91.0968C201.023 91.0968 201.872 90.9292 202.698 91.0739C203.458 91.2342 204.139 91.6531 204.624 92.2593C205.11 92.8655 205.371 93.6215 205.362 94.3984C199.34 94.053 193.306 94.8277 187.566 96.6833C184.739 97.5972 181.477 98.7282 178.977 97.106C178.044 96.4967 177.325 95.5446 176.282 95.16C174.132 94.3679 171.715 96.3024 169.534 95.5751C168.594 95.2552 167.894 94.486 167.065 93.9338C164.321 92.1097 160.511 92.8828 157.611 91.3177C157.365 91.2122 157.144 91.0559 156.962 90.859C156.78 90.6622 156.642 90.4292 156.557 90.1752C156.405 89.4517 157.044 88.7586 157.756 88.5492C158.467 88.3397 159.225 88.4616 159.963 88.5149C161.858 88.6414 163.753 88.2629 165.455 87.4182C166.17 87.0602 166.912 86.6071 167.704 86.7213C169.276 86.946 170.433 89.2803 171.845 88.5644C170.813 89.0861 171.198 85.6132 171.38 85.278C171.974 84.208 173.907 83.454 175.022 83.1684C178.181 82.3496 181.861 83.572 183.654 86.3481Z" fill="#33A96A"/>
<path d="M183.654 86.3481C184.857 84.6307 187.387 84.3451 189.363 85.0572C191.338 85.7693 192.921 87.2392 194.561 88.5454C196.202 89.8516 198.089 91.0625 200.186 91.0968C201.023 91.0968 201.872 90.9292 202.698 91.0739C203.458 91.2342 204.139 91.6531 204.624 92.2593C205.11 92.8655 205.371 93.6215 205.362 94.3984C199.34 94.053 193.306 94.8277 187.566 96.6833C184.739 97.5972 181.477 98.7282 178.977 97.106C178.044 96.4967 177.325 95.5446 176.282 95.16C174.132 94.3679 171.715 96.3024 169.534 95.5751C168.594 95.2552 167.894 94.486 167.065 93.9338C164.321 92.1097 160.511 92.8828 157.611 91.3177C157.365 91.2122 157.144 91.0559 156.962 90.859C156.78 90.6622 156.642 90.4292 156.557 90.1752C156.405 89.4517 157.044 88.7586 157.756 88.5492C158.467 88.3397 159.225 88.4616 159.963 88.5149C161.858 88.6414 163.753 88.2629 165.455 87.4182C166.17 87.0602 166.912 86.6071 167.704 86.7213C169.276 86.946 170.433 89.2803 171.845 88.5644C170.813 89.0861 171.198 85.6132 171.38 85.278C171.974 84.208 173.907 83.454 175.022 83.1684C178.181 82.3496 181.861 83.572 183.654 86.3481Z" fill="url(#paint0_linear_704_2046)"/>
<path d="M161.729 0L120.958 43.4617H139.754V86.2227H181.146V43.1113H198.98L161.729 0Z" fill="#33A96A"/>
<path d="M71.8823 83.1115L97.0423 55.48L123.032 82.5707H107.07V117.457H84.9133V83.1115H71.8823Z" fill="#33A96A"/>
<path d="M197.823 69.0636L222.983 41.4321L248.972 68.5229H233.011V103.409H210.854V69.0636H197.823Z" fill="#33A96A"/>
<path d="M155.723 120.907C155.723 120.907 155.754 154.993 154.239 158.184C153.048 160.694 142.628 164.388 138.232 165.854C137.041 166.254 136.287 166.486 136.287 166.486L137.132 150.218C136.786 152.42 136.244 154.586 135.511 156.691C134.487 159.475 132.946 161.95 130.784 161.261C126.244 159.818 124.965 158.976 124.965 158.976L123.032 152.122C123.032 152.122 130.301 148.839 130.438 144.852C130.575 140.865 132.9 128.93 139.214 126.295L140.515 125.751L145.528 123.66C145.528 123.66 149.714 110.739 148.808 99.8938C147.902 89.0484 148.808 87.4224 148.808 87.4224H155.187C155.187 87.4224 155.613 98.5305 155.723 101.63C155.834 104.73 155.723 120.907 155.723 120.907Z" fill="#3F3D56"/>
<path d="M151.008 114.97C150.304 117.792 149.193 120.492 148.085 123.18C147.514 124.323 147.172 126.821 146.007 127.559C144.767 128.348 142.479 126.672 141.311 126.147C141.048 126.025 140.778 125.899 140.516 125.766L145.528 123.675C145.528 123.675 149.714 110.754 148.808 99.909C147.903 89.0635 148.808 87.4375 148.808 87.4375H149.455C149.559 87.4879 149.655 87.552 149.741 87.6279C150.369 88.1648 150.46 89.0864 150.502 89.9128C150.647 92.289 150.787 94.6957 150.327 97.0301C150.043 98.1215 149.818 99.2274 149.653 100.343C149.554 101.466 149.752 102.677 150.498 103.523C150.848 103.904 151.313 104.224 151.564 104.688C151.758 105.1 151.856 105.55 151.849 106.006C152.017 109.019 151.734 112.041 151.008 114.97Z" fill="#25233A"/>
<path d="M140.2 162.419C139.886 162.925 139.63 163.465 139.438 164.03C139.387 164.291 139.306 164.547 139.199 164.791C139.085 164.986 138.943 165.161 138.776 165.313L138.228 165.869C137.037 166.269 136.283 166.501 136.283 166.501L137.128 150.233C136.782 152.435 136.24 154.602 135.507 156.707C135.793 153.873 136.755 149.764 136.793 148.1C136.858 145.713 137.272 143.349 138.023 141.082C138.635 141.512 138.837 142.312 138.951 143.047C139.4 145.903 139.248 148.866 140.093 151.63C140.645 153.439 141.615 155.153 141.741 157.046C141.867 158.938 141.113 160.762 140.2 162.419Z" fill="#25233A"/>
<path d="M139.629 153.34L136.535 156.314C136.375 156.468 136.169 156.566 135.949 156.592L117.327 158.877C117.088 158.908 116.847 158.854 116.645 158.724C116.443 158.593 116.293 158.395 116.223 158.165L111.949 144.247C111.906 144.103 111.895 143.951 111.916 143.802C111.938 143.653 111.992 143.511 112.074 143.385C112.156 143.259 112.265 143.153 112.393 143.073C112.521 142.994 112.664 142.943 112.813 142.925L130.091 140.956C130.328 140.929 130.568 140.986 130.767 141.117C130.967 141.247 131.114 141.444 131.184 141.672L134.004 150.854C134.133 151.284 134.24 151.577 134.24 151.577H138.928C139.132 151.579 139.33 151.641 139.498 151.756C139.666 151.871 139.796 152.034 139.871 152.223C139.946 152.412 139.963 152.62 139.92 152.819C139.877 153.018 139.775 153.199 139.629 153.34Z" fill="#33A96A"/>
<path d="M148.58 84.4404C148.556 84.3178 148.562 84.1912 148.597 84.0713C148.632 83.9514 148.696 83.8417 148.782 83.7511C148.88 83.6895 148.996 83.6606 149.112 83.6689C149.229 83.6771 149.339 83.7219 149.429 83.7968C149.608 83.9467 149.751 84.1356 149.847 84.349L150.346 85.2515C150.462 85.5028 150.632 85.7252 150.844 85.9027C151.207 86.1008 151.623 86.1756 152.032 86.116L154.064 86.0284C154.151 86.0185 154.239 86.033 154.319 86.0703C154.373 86.1163 154.414 86.1757 154.438 86.2425C154.462 86.3092 154.468 86.3812 154.456 86.4511C154.449 86.782 154.368 87.1071 154.22 87.4031L151.937 87.4869C151.309 87.5097 150.327 87.7382 149.729 87.5478C148.823 87.247 148.622 85.2477 148.58 84.4404Z" fill="url(#paint1_linear_704_2046)"/>
<path d="M154.974 196.059C154.761 197.343 152.69 203.272 152.69 203.272L151.13 202.259L149.086 200.934C149.086 200.934 152.804 183.912 152.473 182.171C152.142 180.431 149.554 175.934 149.554 175.934L147.781 216.897L143.214 218.66C143.214 218.66 135.861 174.464 136.276 166.49L154.228 158.188C154.228 158.188 159.556 173.881 160.195 177.198C160.835 180.515 155.191 194.776 154.974 196.059Z" fill="#33A96A"/>
<path d="M148.272 205.488L156.264 210.538C156.264 210.538 157.204 208.992 155.72 207.042C154.235 205.092 152.675 203.272 152.675 203.272L149.063 200.934L148.272 205.488Z" fill="#3F3D56"/>
<path d="M143.225 218.66C143.225 218.66 140.664 223.47 141.623 226.033C142.582 228.595 144.748 225.461 146.004 223.576C147.069 221.969 148.264 218.66 148.264 218.66L147.781 216.897L143.225 218.66Z" fill="#3F3D56"/>
<path d="M156.549 179.871L151.13 202.259L149.086 200.934C149.086 200.934 152.804 183.912 152.473 182.171C152.142 180.431 149.554 175.934 149.554 175.934C149.554 175.934 151.663 172.194 152.412 172.994C153.162 173.794 156.549 179.871 156.549 179.871Z" fill="url(#paint2_linear_704_2046)"/>
<path d="M139.366 165.062L144.169 218.295L143.225 218.676C143.225 218.676 135.884 174.277 136.287 166.505L139.366 165.062Z" fill="url(#paint3_linear_704_2046)"/>
<path d="M138.921 151.562L135.317 154.89L134.004 150.854C134.133 151.284 134.24 151.577 134.24 151.577L138.921 151.562Z" fill="url(#paint4_linear_704_2046)"/>
<path d="M111.949 144.262L129.117 142.384C129.408 142.352 129.701 142.42 129.949 142.576C130.196 142.733 130.383 142.968 130.48 143.245L135.203 156.684L117.316 158.892L111.949 144.262Z" fill="url(#paint5_linear_704_2046)"/>
<path d="M144.946 120.301C144.504 121.284 145.528 123.675 145.528 123.675C145.528 123.675 146.635 125.796 146.262 127.937C146.262 128.039 146.221 128.146 146.198 128.249C145.642 130.492 138.525 128.119 138.742 124.985C138.959 121.851 135.496 113.862 135.496 113.862C137.528 104.886 144.188 107.731 144.782 108.211C145.376 108.69 147.591 115.785 146.985 117.396C146.814 117.863 146.565 118.297 146.251 118.683C145.756 119.307 145.235 119.658 144.946 120.301Z" fill="url(#paint6_linear_704_2046)"/>
<path d="M144.782 108.218C144.782 108.218 145.779 105.735 144.782 104.852C143.785 103.968 142.118 103.732 140.234 103.652C138.35 103.572 137.76 103.248 136.287 104.852C134.814 106.455 134.32 108.964 133.406 109.395C132.493 109.825 131.694 111.272 132.173 112.7C132.653 114.128 133.855 116.402 134.095 116.478C134.335 116.554 135.979 118.317 136.059 119.36C136.139 120.404 138.259 120.907 138.259 120.907L138.141 116.794C138.141 116.794 137.901 117.875 136.9 116.954C135.899 116.032 137.38 114.951 137.498 114.993C137.616 115.034 136.356 112.883 136.755 111.832C137.155 110.781 139.45 105.103 144.782 108.218Z" fill="#3F3D56"/>
<path d="M146.262 127.952C146.199 128.112 146.103 128.257 145.981 128.378C145.79 128.538 145.561 128.644 145.315 128.684C145.07 128.724 144.819 128.697 144.588 128.607C144.129 128.415 143.727 128.109 143.419 127.719C142.722 126.911 142.217 125.955 141.943 124.924C141.67 123.892 141.634 122.811 141.84 121.763C141.905 121.382 142.044 121.017 142.251 120.69C142.753 119.958 143.693 119.696 144.515 119.357C145.337 119.018 145.939 118.466 146.251 118.698C145.756 119.315 145.235 119.665 144.945 120.309C144.504 121.291 145.528 123.683 145.528 123.683C145.528 123.683 146.635 125.796 146.262 127.952Z" fill="url(#paint7_linear_704_2046)"/>
<path d="M183.738 109.482C182.977 112.91 185.047 116.718 188.327 117.917C191.087 118.926 194.139 118.191 197.081 118.195C202.226 118.195 207.117 120.526 212.251 120.861C215.65 121.078 219.048 120.423 222.123 118.957C223.9 118.108 225.609 116.98 227.561 116.733C229.198 116.523 230.906 116.958 232.49 116.485C235.18 115.686 236.524 112.262 235.553 109.631C234.583 106.999 231.808 105.312 229.011 105.061C226.294 104.833 223.485 105.762 220.874 104.977C217.955 104.101 215.954 101.276 213.054 100.331C208.806 98.9529 204.51 101.992 201.073 104.848C200.706 103.817 200.038 102.92 199.156 102.272C198.274 101.625 197.219 101.256 196.126 101.215C193.88 101.169 191.661 103.035 189.621 103.881C186.904 105.046 184.461 106.295 183.738 109.482Z" fill="#33A96A"/>
<path d="M183.738 109.482C182.977 112.91 185.047 116.718 188.327 117.917C191.087 118.926 194.139 118.191 197.081 118.195C202.226 118.195 207.117 120.526 212.251 120.861C215.65 121.078 219.048 120.423 222.123 118.957C223.9 118.108 225.609 116.98 227.561 116.733C229.198 116.523 230.906 116.958 232.49 116.485C235.18 115.686 236.524 112.262 235.553 109.631C234.583 106.999 231.808 105.312 229.011 105.061C226.294 104.833 223.485 105.762 220.874 104.977C217.955 104.101 215.954 101.276 213.054 100.331C208.806 98.9529 204.51 101.992 201.073 104.848C200.706 103.817 200.038 102.92 199.156 102.272C198.274 101.625 197.219 101.256 196.126 101.215C193.88 101.169 191.661 103.035 189.621 103.881C186.904 105.046 184.461 106.295 183.738 109.482Z" fill="url(#paint8_linear_704_2046)"/>
<path d="M52.1798 115.126C51.4187 118.553 53.489 122.361 56.7734 123.561C59.5326 124.57 62.581 123.831 65.5267 123.839C70.6683 123.839 75.5587 126.165 80.6927 126.504C84.093 126.722 87.4926 126.067 90.5687 124.6C92.346 123.755 94.051 122.624 96.0071 122.376C97.6436 122.171 99.3524 122.605 100.936 122.133C103.622 121.333 104.97 117.906 103.999 115.278C103.029 112.651 100.251 110.956 97.4571 110.708C94.7398 110.476 91.9311 111.405 89.3204 110.625C86.3975 109.749 84.3957 106.919 81.4995 105.979C77.2523 104.596 72.9556 107.639 69.5189 110.491C69.1509 109.461 68.483 108.565 67.6011 107.918C66.7193 107.271 65.6641 106.903 64.5714 106.862C62.326 106.817 60.1073 108.679 58.0674 109.528C55.3463 110.689 52.9106 111.958 52.1798 115.126Z" fill="#33A96A"/>
<path d="M52.1798 115.126C51.4187 118.553 53.489 122.361 56.7734 123.561C59.5326 124.57 62.581 123.831 65.5267 123.839C70.6683 123.839 75.5587 126.165 80.6927 126.504C84.093 126.722 87.4926 126.067 90.5687 124.6C92.346 123.755 94.051 122.624 96.0071 122.376C97.6436 122.171 99.3524 122.605 100.936 122.133C103.622 121.333 104.97 117.906 103.999 115.278C103.029 112.651 100.251 110.956 97.4571 110.708C94.7398 110.476 91.9311 111.405 89.3204 110.625C86.3975 109.749 84.3957 106.919 81.4995 105.979C77.2523 104.596 72.9556 107.639 69.5189 110.491C69.1509 109.461 68.483 108.565 67.6011 107.918C66.7193 107.271 65.6641 106.903 64.5714 106.862C62.326 106.817 60.1073 108.679 58.0674 109.528C55.3463 110.689 52.9106 111.958 52.1798 115.126Z" fill="url(#paint9_linear_704_2046)"/>
<path d="M123.584 158.855C123.971 158.933 124.368 158.947 124.76 158.896L126.879 158.748C127.153 158.738 127.424 158.693 127.686 158.615C127.919 158.529 128.127 158.388 128.293 158.203C128.459 158.019 128.577 157.797 128.638 157.556C128.659 157.485 128.659 157.41 128.638 157.339C128.565 157.122 128.257 157.137 128.055 157.267C127.854 157.396 127.717 157.598 127.492 157.647C127.371 157.658 127.25 157.644 127.134 157.605L125.936 157.301C125.868 157.278 125.797 157.27 125.726 157.278C125.464 157.32 125.441 157.685 125.483 157.948C125.402 157.841 125.298 157.752 125.179 157.69C125.06 157.627 124.928 157.592 124.794 157.586C124.659 157.587 124.53 157.641 124.434 157.737C124.339 157.832 124.285 157.962 124.284 158.097L123.812 157.716C123.747 157.666 123.66 157.613 123.587 157.655C123.553 157.683 123.529 157.722 123.519 157.765L123.359 158.173C123.401 158.066 122.758 157.792 122.716 158.173C122.693 158.5 123.367 158.797 123.584 158.855Z" fill="url(#paint10_linear_704_2046)"/>
</g>
<defs>
<linearGradient id="paint0_linear_704_2046" x1="183.738" y1="81.6147" x2="178.887" y2="99.9301" gradientUnits="userSpaceOnUse">
<stop stop-color="white" stop-opacity="0"/>
<stop offset="0.06" stop-color="white" stop-opacity="0.13"/>
<stop offset="0.16" stop-color="white" stop-opacity="0.33"/>
<stop offset="0.26" stop-color="white" stop-opacity="0.51"/>
<stop offset="0.37" stop-color="white" stop-opacity="0.66"/>
<stop offset="0.48" stop-color="white" stop-opacity="0.79"/>
<stop offset="0.59" stop-color="white" stop-opacity="0.88"/>
<stop offset="0.71" stop-color="white" stop-opacity="0.95"/>
<stop offset="0.84" stop-color="white" stop-opacity="0.99"/>
<stop offset="1" stop-color="white"/>
</linearGradient>
<linearGradient id="paint1_linear_704_2046" x1="148.576" y1="85.64" x2="154.456" y2="85.64" gradientUnits="userSpaceOnUse">
<stop stop-color="#ECC4D7"/>
<stop offset="0.42" stop-color="#EFD4D1"/>
<stop offset="1" stop-color="#F2EAC9"/>
</linearGradient>
<linearGradient id="paint2_linear_704_2046" x1="165.409" y1="181.227" x2="92.2429" y2="214.697" gradientUnits="userSpaceOnUse">
<stop stop-opacity="0.07"/>
<stop offset="0.08" stop-opacity="0.25"/>
<stop offset="1"/>
</linearGradient>
<linearGradient id="paint3_linear_704_2046" x1="2976.71" y1="27382.8" x2="4539.36" y2="27349.5" gradientUnits="userSpaceOnUse">
<stop stop-opacity="0.07"/>
<stop offset="0.08" stop-opacity="0.25"/>
<stop offset="1"/>
</linearGradient>
<linearGradient id="paint4_linear_704_2046" x1="1994.03" y1="1738.03" x2="1801.93" y2="1940.02" gradientUnits="userSpaceOnUse">
<stop stop-opacity="0.07"/>
<stop offset="0.08" stop-opacity="0.25"/>
<stop offset="1"/>
</linearGradient>
<linearGradient id="paint5_linear_704_2046" x1="124.954" y1="156.699" x2="131.111" y2="184.508" gradientUnits="userSpaceOnUse">
<stop stop-opacity="0.07"/>
<stop offset="0.52" stop-opacity="0.83"/>
<stop offset="0.56" stop-opacity="0.87"/>
<stop offset="1"/>
</linearGradient>
<linearGradient id="paint6_linear_704_2046" x1="4435.69" y1="6855.59" x2="4788.82" y2="6855.59" gradientUnits="userSpaceOnUse">
<stop stop-color="#ECC4D7"/>
<stop offset="0.42" stop-color="#EFD4D1"/>
<stop offset="1" stop-color="#F2EAC9"/>
</linearGradient>
<linearGradient id="paint7_linear_704_2046" x1="1930.23" y1="3231.13" x2="2404.88" y2="3569.32" gradientUnits="userSpaceOnUse">
<stop stop-color="#ECC4D7"/>
<stop offset="0.42" stop-color="#EFD4D1"/>
<stop offset="1" stop-color="#F2EAC9"/>
</linearGradient>
<linearGradient id="paint8_linear_704_2046" x1="211.999" y1="99.0329" x2="206.25" y2="129.561" gradientUnits="userSpaceOnUse">
<stop offset="0.02" stop-color="white" stop-opacity="0"/>
<stop offset="0.06" stop-color="white" stop-opacity="0.13"/>
<stop offset="0.13" stop-color="white" stop-opacity="0.33"/>
<stop offset="0.2" stop-color="white" stop-opacity="0.51"/>
<stop offset="0.27" stop-color="white" stop-opacity="0.66"/>
<stop offset="0.35" stop-color="white" stop-opacity="0.79"/>
<stop offset="0.43" stop-color="white" stop-opacity="0.88"/>
<stop offset="0.51" stop-color="white" stop-opacity="0.95"/>
<stop offset="0.6" stop-color="white" stop-opacity="0.99"/>
<stop offset="0.71" stop-color="white"/>
</linearGradient>
<linearGradient id="paint9_linear_704_2046" x1="11547.8" y1="5789.1" x2="11556" y2="7343.39" gradientUnits="userSpaceOnUse">
<stop stop-color="white" stop-opacity="0"/>
<stop offset="0.06" stop-color="white" stop-opacity="0.13"/>
<stop offset="0.16" stop-color="white" stop-opacity="0.33"/>
<stop offset="0.26" stop-color="white" stop-opacity="0.51"/>
<stop offset="0.37" stop-color="white" stop-opacity="0.66"/>
<stop offset="0.48" stop-color="white" stop-opacity="0.79"/>
<stop offset="0.59" stop-color="white" stop-opacity="0.88"/>
<stop offset="0.71" stop-color="white" stop-opacity="0.95"/>
<stop offset="0.84" stop-color="white" stop-opacity="0.99"/>
<stop offset="1" stop-color="white"/>
</linearGradient>
<linearGradient id="paint10_linear_704_2046" x1="2126" y1="885.324" x2="2218.58" y2="885.324" gradientUnits="userSpaceOnUse">
<stop stop-color="#ECC4D7"/>
<stop offset="0.42" stop-color="#EFD4D1"/>
<stop offset="1" stop-color="#F2EAC9"/>
</linearGradient>
<clipPath id="clip0_704_2046">
<rect width="301" height="227" fill="white"/>
</clipPath>
</defs>
</svg>
