<svg width="772" height="1080" viewBox="0 0 772 1080" fill="none" xmlns="http://www.w3.org/2000/svg">
<rect width="772" height="1081" fill="#33A96A"/>
<g clip-path="url(#clip0)">
<path opacity="0.24" d="M652.724 1075.09C642.098 1105.56 567.523 1085.86 545.473 1084.37C524.775 1082.97 504.065 1081.93 483.344 1081.25C426.486 1079.34 369.506 1080.05 312.717 1083.38C299.253 1084.16 285.795 1085.09 272.344 1086.17C245.544 1088.31 218.397 1091.05 191.892 1087.09C189.795 1086.78 187.68 1086.43 185.565 1086.02C161.417 1081.39 137.564 1069.64 122.708 1050.52C119.99 1047.02 117.593 1043.29 115.549 1039.36C101.404 1012.05 106.171 979.078 99.5316 949.057C93.6031 922.245 78.7297 898.346 69.5942 872.435C61.1745 848.594 57.7049 823.284 59.3975 798.055C61.0901 772.826 67.9094 748.207 79.4382 725.705C90.967 703.203 106.963 683.29 126.448 667.186C145.932 651.081 168.496 639.122 192.759 632.041C238.246 618.739 287.564 623.144 332.825 609.183C380.6 594.406 420.384 560.258 467.743 544.146C509.506 530.11 554.81 530.777 596.143 546.036C644.316 563.986 687.896 613.952 672.503 663.033C666.124 683.325 650.436 700.616 648.356 721.792C644.316 763.104 691.97 792.344 698.453 833.344C705.769 879.633 660.577 914.683 632.355 952.092C624.572 962.377 617.725 973.91 615.679 986.64C610.288 1020.34 660.663 1052.37 652.724 1075.09Z" fill="#33A96A"/>
<path d="M395.994 747.616C395.994 747.616 413.519 752.16 411.595 757.034C409.671 761.907 401.61 766.884 390.412 772.642L390.81 778.21C390.81 778.21 420.401 769.243 423.903 757.155C424.903 753.623 425.076 749.909 424.409 746.299C423.742 742.69 422.251 739.283 420.054 736.343L395.994 747.616Z" fill="#FDCC4E"/>
<path d="M395.994 747.616C395.994 747.616 413.519 752.16 411.595 757.034C409.671 761.907 401.61 766.884 390.412 772.642L390.81 778.21C390.81 778.21 420.401 769.243 423.903 757.155C424.903 753.623 425.076 749.909 424.409 746.299C423.742 742.69 422.251 739.283 420.054 736.343L395.994 747.616Z" fill="url(#paint0_linear)"/>
<path d="M391.417 728.99C391.417 728.99 379.456 736.066 377.549 737.661C375.642 739.257 375.677 744.46 380.201 749.94C387.014 758.161 392.648 756.062 392.648 756.062L404.176 744.095L391.417 728.99Z" fill="#33A96A"/>
<path d="M391.417 728.99C391.417 728.99 379.456 736.066 377.549 737.661C375.642 739.257 375.677 744.46 380.201 749.94C387.014 758.161 392.648 756.062 392.648 756.062L404.176 744.095L391.417 728.99Z" fill="url(#paint1_linear)"/>
<path d="M381.935 736.517C392.805 718.254 407.272 702.394 424.458 689.898C453.442 668.583 496.259 652.784 510.543 657.293C524.827 661.802 506.712 695.708 447.27 728.209C446.005 728.885 437.476 733.585 436.159 734.158L394.815 751.501C394.815 751.501 387.049 751.119 381.935 736.517Z" fill="#FD0000"/>
<path d="M381.935 736.517C392.805 718.254 407.272 702.394 424.458 689.898C453.442 668.583 496.259 652.784 510.543 657.293C524.827 661.802 506.712 695.708 447.27 728.209C446.005 728.885 437.476 733.585 436.159 734.158L394.815 751.501C394.815 751.501 387.049 751.119 381.935 736.517Z" fill="url(#paint2_linear)"/>
<path d="M406.031 705.802C406.031 705.802 393.185 693.054 378.78 699.367C364.375 705.68 343.694 736.464 343.694 736.464L350.836 736.863C350.836 736.863 374.672 714.213 378.971 716.052C383.27 717.89 383.616 733.516 383.616 733.516C383.616 733.516 393.584 732.233 400.674 720.595C407.764 708.958 406.031 705.802 406.031 705.802Z" fill="#FDCC4E"/>
<path d="M406.031 705.802C406.031 705.802 393.185 693.054 378.78 699.367C364.375 705.68 343.694 736.464 343.694 736.464L350.836 736.863C350.836 736.863 374.672 714.213 378.971 716.052C383.27 717.89 383.616 733.516 383.616 733.516C383.616 733.516 393.584 732.233 400.674 720.595C407.764 708.958 406.031 705.802 406.031 705.802Z" fill="url(#paint3_linear)"/>
<path d="M483.344 1081.23C426.486 1079.32 369.506 1080.03 312.717 1083.36C299.253 1084.14 285.795 1085.07 272.344 1086.16C245.544 1088.29 218.397 1091.03 191.892 1087.07C189.795 1086.76 187.68 1086.42 185.565 1086C161.417 1081.37 137.564 1069.63 122.708 1050.5C129.92 968.881 176.533 916.192 196.555 889.848C230.185 845.657 365.761 741.269 379.595 737.332C393.307 733.464 389.909 739.066 389.909 739.066L392.631 756.062C389.926 757.918 176.984 905.092 276.14 996.977C328.301 1045.31 410.104 1069.37 483.344 1081.23Z" fill="url(#paint4_linear)"/>
<path d="M208.62 954.382C182.393 1018.83 235.697 1056.62 312.717 1083.38C299.253 1084.16 285.795 1085.09 272.343 1086.17C245.544 1088.31 218.397 1091.05 191.892 1087.09C177.331 1054.5 171.09 1024.66 171.94 1003.53C176.325 887.212 376.492 739.638 379.595 737.349L392.631 756.028C390.36 756.791 272.049 798.414 208.62 954.382Z" fill="url(#paint5_linear)"/>
<path d="M480.125 690.396C485.42 690.396 489.712 686.102 489.712 680.805C489.712 675.508 485.42 671.214 480.125 671.214C474.831 671.214 470.539 675.508 470.539 680.805C470.539 686.102 474.831 690.396 480.125 690.396Z" fill="url(#paint6_linear)"/>
<path d="M480.125 688.818C484.549 688.818 488.134 685.23 488.134 680.805C488.134 676.38 484.549 672.792 480.125 672.792C475.702 672.792 472.117 676.38 472.117 680.805C472.117 685.23 475.702 688.818 480.125 688.818Z" fill="url(#paint7_linear)"/>
<path d="M552.753 818.134C535.418 810.069 515.275 807.485 497.004 812.931C478.733 818.376 462.82 832.563 456.995 850.739C455.383 855.768 454.464 861.145 451.361 865.481C447.357 870.996 440.527 873.562 435.205 877.846C418.633 891.183 421.528 919.713 437.372 933.917C453.216 948.121 477.104 949.907 497.663 944.461C519.21 968.655 555.336 978.697 586.279 969.089C592.312 978.229 605.521 980.206 615.835 976.512C626.149 972.818 634.245 964.822 641.976 957.053L665.569 933.379C678.761 920.146 692.092 906.705 701.435 890.524C710.779 874.343 715.771 854.797 711.004 836.76C708.775 828.342 704.536 820.591 698.651 814.174C692.765 807.757 685.41 802.867 677.217 799.924C669.025 796.981 660.24 796.073 651.619 797.278C642.998 798.483 634.799 801.766 627.727 806.843C624.711 787.505 608.659 784.765 590.266 788.598C585.69 789.535 545.473 814.734 552.753 818.134Z" fill="#FBFBFB"/>
<path d="M172.65 720.595C181.509 715.722 191.719 712.236 201.669 714.265C211.619 716.294 220.512 725.347 219.524 735.424C223.918 734.962 228.337 736.02 232.045 738.422C235.754 740.824 238.528 744.424 239.906 748.623C241.285 752.823 241.183 757.367 239.62 761.501C238.056 765.635 235.124 769.108 231.312 771.342C241.886 779.267 241.47 796.68 232.768 806.618C224.066 816.555 209.747 819.885 196.573 818.914C183.398 817.943 170.83 813.277 158.124 809.67C154.726 808.433 151.075 808.058 147.497 808.577C143.614 809.479 140.563 812.324 137.374 814.769C130.204 820.276 121.935 824.174 113.126 826.2C104.317 828.226 95.1757 828.332 86.3225 826.51C80.5897 825.504 75.2149 823.031 70.721 819.33C64.6711 813.902 61.9149 805.629 60.9961 797.547C58.5172 775.781 69.6636 751.848 90.1015 743.783C90.1015 743.783 92.8404 732.424 93.5685 731.105C95.8489 726.772 99.0286 722.975 102.895 719.971C109.829 714.577 118.825 711.733 127.06 709.062C143.042 703.825 168.074 696.488 172.65 720.595Z" fill="url(#paint8_linear)"/>
</g>
<g clip-path="url(#clip1)">
<path opacity="0.18" d="M623.182 346.943C601.288 378.807 564.25 397.78 526.369 405.658C488.487 413.537 449.396 411.472 410.713 409.001C372.325 406.515 332.981 403.383 294.748 409.225C261.76 414.267 229.179 420.109 199.819 399.086C188.823 391.208 180.133 380.549 172.371 369.468C150.815 338.573 134.096 300.768 130.327 263.146C126.657 226.352 129.357 188.182 140.888 153.284C146.315 136.557 153.977 120.638 163.667 105.958C167.868 99.6538 172.447 93.6088 177.377 87.8556C177.785 87.3501 178.221 86.8445 178.671 86.353C187.603 76.144 197.455 66.7752 208.101 58.3645C219.97 49.0085 232.599 40.6565 245.856 33.3952C266.147 22.1839 287.757 13.5414 310.188 7.6677C338.218 0.207219 367.417 -1.83763 396.216 1.64307C447.863 8.28561 497.599 36.218 525.412 80.202C548.276 116.336 556.868 162.567 589.491 190.246C597.632 197.156 606.969 202.59 614.801 209.837C627.583 221.619 635.893 237.769 639.999 254.635C643.773 270.344 644.226 286.666 641.33 302.559C638.435 318.452 632.254 333.568 623.182 346.943Z" fill="#33A96A"/>
<path d="M421.794 54.8817C419.459 52.6909 417.209 50.2193 414.2 49.1098C411.082 48.1974 407.758 48.2661 404.681 49.3064C401.628 50.3597 398.521 51.2458 395.372 51.9607C392.264 52.4662 389.058 52.2415 385.937 52.733C385.617 52.7465 385.307 52.8433 385.037 53.0139C384.843 53.1729 384.69 53.3754 384.59 53.6049C384.49 53.8343 384.445 54.0841 384.46 54.334C384.46 56.2158 386.401 57.5078 388.173 58.1538C390.467 58.9934 392.902 59.3797 395.344 59.2913C395.105 60.8923 397.017 61.9455 398.62 62.2545C400.673 62.6478 402.782 62.6478 404.835 62.2545C405.166 62.9257 405.67 63.4967 406.296 63.9089C406.921 64.3211 407.645 64.5595 408.393 64.5997C409.153 64.6241 409.904 64.4359 410.563 64.0562C411.221 63.6765 411.76 63.1206 412.119 62.4511C412.631 63.2089 413.336 63.8166 414.162 64.2116C414.987 64.6066 415.904 64.7745 416.816 64.698C418.644 64.698 420.43 64.1363 422.243 63.9818C424.849 63.8817 427.452 64.2381 429.935 65.0351C431.243 65.4002 440.903 66.0603 441.817 64.5857C442.731 63.1111 433.985 62.409 432.832 61.9315C428.745 60.2878 425.002 57.897 421.794 54.8817Z" fill="#3B3B3B"/>
<path d="M421.273 55.9771C419.037 53.702 416.886 51.1602 413.947 49.9524C410.883 48.9239 407.574 48.8797 404.484 49.8261C401.423 50.7776 398.31 51.5559 395.161 52.1573C392.053 52.5645 388.876 52.1573 385.768 52.6207C385.45 52.6292 385.139 52.7213 384.868 52.8875C384.669 53.0378 384.509 53.2336 384.401 53.4584C384.294 53.6832 384.242 53.9305 384.249 54.1795C384.249 56.0613 386.035 57.4095 387.779 58.1117C390.011 59.0252 392.397 59.502 394.809 59.516C394.514 61.117 396.37 62.2264 397.959 62.5775C399.983 63.0263 402.073 63.0835 404.118 62.746C404.387 63.4553 404.852 64.0733 405.46 64.5277C406.068 64.9821 406.793 65.254 407.55 65.3115C408.308 65.369 409.065 65.2097 409.735 64.8523C410.405 64.4949 410.959 63.9543 411.332 63.2937C411.813 64.0648 412.492 64.6937 413.297 65.1158C414.103 65.5379 415.007 65.7379 415.916 65.6951C417.73 65.6951 419.515 65.2598 421.329 65.1615C423.918 65.1439 426.489 65.5861 428.923 66.4675C430.202 66.8607 432.635 67.8719 433.591 66.3692C434.547 64.8666 433.043 63.9678 431.918 63.4622C427.93 61.6566 424.319 59.1173 421.273 55.9771Z" fill="#010101"/>
<path d="M391.069 120.478C390.493 127.388 381.367 129.284 374.42 129.41C344.899 129.914 315.433 132.137 286.171 136.067C279.14 137.008 272.011 138.117 266.063 141.881C261.844 144.549 258.512 148.397 254.532 151.416C239.149 163.086 217.044 160.306 199.313 152.652C197.124 158.238 193.394 163.09 188.555 166.644C183.717 170.199 177.969 172.31 171.977 172.734C165.979 172.963 160.039 171.488 154.847 168.48C149.655 165.473 145.424 161.055 142.645 155.742C142.264 154.802 141.661 153.969 140.888 153.312C146.315 136.585 153.977 120.666 163.667 105.986C167.868 99.6819 172.447 93.6369 177.377 87.8837C178.044 89.1945 178.64 90.5399 179.163 91.9142C178.503 90.1478 178.333 88.236 178.671 86.3811C187.594 76.1339 197.446 66.7317 208.101 58.2942C219.941 53.0139 233.96 50.7389 245.955 55.3872C255.798 59.193 263.855 69.0374 262.927 79.57C268.889 70.3154 281.376 68.237 292.372 67.7174C295.098 67.3944 297.861 67.7316 300.429 68.7004C304.788 70.7507 306.686 75.9468 307.235 80.7356C307.783 85.5244 307.488 90.566 309.302 94.9756C313.45 89.2319 322.59 88.8668 328.341 93.0096C334.092 97.1524 336.693 104.581 336.848 111.659C350.222 107.062 364.6 106.202 378.428 109.174C384.474 110.55 391.589 114.313 391.069 120.478Z" fill="#FBFBFB"/>
<path opacity="0.39" d="M434.716 146.403C457.003 154.506 475.114 174.841 498.822 175.613C509.776 175.978 520.336 171.976 530.559 168.044C514.121 176.301 505.445 197.408 511.351 214.808C504.32 201.916 485.914 202.169 473.132 194.951C461.376 188.294 454.655 175.192 443.603 167.524C436.895 162.904 429.063 160.629 421.104 158.943C415.634 157.792 398.817 157.946 395.288 153.129C385.177 139.283 429.612 144.647 434.716 146.403Z" fill="#33A96A"/>
<path opacity="0.39" d="M423.326 363.556C443.504 364.581 463.218 358.276 482.708 352.967C502.197 347.659 522.825 343.263 542.441 348.108C562.057 352.953 578.776 366.912 591.656 382.753C575.351 380.798 558.879 384.679 545.169 393.707C533.23 377.979 511.646 373.063 491.89 373.063C472.133 373.063 452.251 376.869 432.719 373.864C411.247 370.55 386.907 357.574 376.178 338.264C381.62 345.756 388.687 351.923 396.852 356.303C405.016 360.683 414.067 363.162 423.326 363.556Z" fill="#33A96A"/>
<path opacity="0.39" d="M230.965 297.72C240.386 308.955 252.662 317.494 263.152 327.787C273.642 338.081 282.726 351.24 282.838 365.929C285.83 361.872 289.617 358.464 293.968 355.913C298.319 353.361 303.143 351.719 308.149 351.085C300.654 347.575 297.462 338.882 292.681 332.169C288.463 326.397 282.838 321.889 277.213 317.606C262.477 306.512 246.827 296.162 235.127 281.908C223.71 268.005 217.073 250.212 220.672 232.236C205.402 249.046 218.619 282.905 230.965 297.72Z" fill="#33A96A"/>
<path d="M436.741 271.459C418.742 268.903 400.181 283.761 398.775 301.863C398.353 307.284 399.436 313.098 403.148 317.072C407.141 321.285 413.371 322.69 419.206 322.999C431.568 323.699 443.888 321.019 454.838 315.247C456.919 314.151 459.056 312.901 461.461 313.112C463.426 313.486 465.279 314.307 466.874 315.514C473.327 319.402 480.627 321.672 488.15 322.129C495.672 322.587 503.194 321.218 510.071 318.14C516.807 315.036 523.458 310.163 530.826 311.118C534.341 311.567 537.533 313.323 540.753 314.797C567.287 326.973 601.344 319.965 620.904 298.324C624.883 293.929 628.469 288.171 627.049 282.413C626.162 279.494 624.495 276.872 622.226 274.83C612.383 264.999 597.801 260.786 583.838 261.208C581.862 261.481 579.849 261.229 578.002 260.477C576.104 259.452 575.049 257.402 573.967 255.534C561.719 234.469 534.693 229.863 513.868 239.384C506.753 221.465 486.701 233.697 474.932 237.825C458.002 243.752 443.293 253.975 436.741 271.459Z" fill="#FBFBFB"/>
<path d="M460.814 77.4073C460.742 77.5197 460.657 77.6233 460.561 77.7163C459.623 78.6582 458.361 79.206 457.031 79.247C456.129 79.3313 455.22 79.3313 454.318 79.247C446.269 78.5711 438.37 76.677 430.891 73.6296C428.991 72.7344 427.026 71.9833 425.013 71.3827C422.96 70.8912 420.795 70.8069 418.756 70.3575C415.8 69.7049 413.049 68.3405 410.741 66.3832C410.129 65.8754 409.602 65.2733 409.18 64.5997C408.741 64.066 408.478 63.4095 408.428 62.7204C408.377 62.0313 408.542 61.3436 408.899 60.7518C410.066 59.1228 412.583 59.4598 414.425 60.2322C415.99 60.8777 417.472 61.7074 418.84 62.7039C420.725 63.1111 422.525 64.3189 424.465 64.8385C428.684 65.9619 433 63.6869 437.331 63.1252C442.183 62.4932 447.034 64.0661 451.576 65.9339C454.641 67.1697 457.777 68.6021 459.858 71.158C460.319 71.714 460.698 72.3336 460.983 72.9977C461.32 73.6898 461.481 74.4544 461.452 75.2236C461.422 75.9929 461.203 76.743 460.814 77.4073Z" fill="#3B3B3B"/>
<path d="M487.053 74.5003C486.951 75.221 486.668 75.9041 486.23 76.4861C485.792 77.0681 485.214 77.5299 484.55 77.8286C483.222 78.42 481.785 78.7262 480.331 78.7274C477.422 78.8938 474.504 78.7432 471.627 78.278C473.23 79.3593 474.833 80.4407 476.45 81.508C475.143 82.1509 473.684 82.423 472.232 82.2944C469.898 82.0541 467.616 81.4524 465.468 80.5109C465.205 80.96 464.816 81.3219 464.348 81.5516C463.881 81.7813 463.356 81.8687 462.839 81.8029C461.807 81.6517 460.817 81.2934 459.928 80.7496L457.031 79.247L455.274 78.3342C454.59 78.0238 453.967 77.596 453.432 77.0703C453.263 76.8851 453.121 76.6771 453.01 76.4523C452.734 75.9236 452.513 75.3684 452.349 74.7952C451.491 72.1129 451.294 69.9924 454.824 70.9052C456.877 71.4389 458.888 72.3095 460.969 72.9134C461.615 73.0837 462.273 73.2058 462.937 73.2785C465.528 73.494 468.133 73.4423 470.713 73.1241C476.198 72.7713 481.705 73.2351 487.053 74.5003Z" fill="#3B3B3B"/>
<path d="M438.288 62.423C441.887 60.0777 444.615 56.7073 448.665 55.0502C450.583 54.3572 452.591 53.9457 454.627 53.8284C457.428 53.5243 460.25 53.4444 463.064 53.5897C470.095 54.0531 476.83 56.6371 483.847 56.7495C486.082 56.7495 488.318 56.5669 490.54 56.7495C490.458 57.5869 490.155 58.3874 489.661 59.0687C489.166 59.75 488.499 60.2874 487.728 60.6254C486.201 61.3109 484.534 61.6238 482.862 61.5383C483.164 61.657 483.415 61.8761 483.574 62.1586C483.732 62.4411 483.788 62.7696 483.732 63.0884C483.675 63.4073 483.511 63.697 483.265 63.9084C483.019 64.1198 482.708 64.24 482.384 64.2486C483.408 65.3295 484.819 65.9608 486.307 66.0041C487.489 66.2147 488.937 66.9731 487.151 67.605C485.609 68.0061 484.02 68.1998 482.426 68.1808C480.658 68.309 478.893 67.8976 477.364 67.0012L479.488 68.8128C478.221 69.4395 476.82 69.7491 475.407 69.7148C473.993 69.6806 472.609 69.3035 471.374 68.6161C471.866 69.4307 471.107 70.5261 470.179 70.7367C469.205 70.864 468.217 70.6665 467.367 70.175C464.934 68.9252 462.355 67.9817 459.689 67.3663C454.332 66.4254 448.946 68.3634 443.589 69.2762C440.017 69.8801 430.132 70.2592 429.091 65.3581C432.345 65.1168 435.496 64.1112 438.288 62.423Z" fill="#3C3B3B"/>
<path d="M406.143 61.4821C405.791 61.609 405.473 61.8157 405.215 62.0859C404.738 62.5345 404.407 63.1154 404.264 63.7537C404.121 64.392 404.173 65.0585 404.413 65.667C404.979 64.9539 405.774 64.4578 406.663 64.2627C407.745 64.1835 408.828 64.4123 409.785 64.9227L411.36 65.5828C411.121 65.4845 410.699 63.9256 410.544 63.6167C410.238 63.0153 409.84 62.4656 409.363 61.9876C408.906 61.6532 408.375 61.4328 407.814 61.3449C407.254 61.2569 406.681 61.304 406.143 61.4821Z" fill="#FDCC4E"/>
<path d="M442.365 66.1024C444.629 65.2308 446.812 64.1641 448.89 62.9145C450.79 61.4367 452.846 60.17 455.021 59.1368C456.246 58.7381 457.517 58.4974 458.803 58.4206C462.89 58.0568 467.008 58.2648 471.037 59.0385C476.296 60.0497 481.541 59.9233 486.884 60.162C486.513 60.7209 485.999 61.1714 485.396 61.4674C484.794 61.7635 484.123 61.8946 483.453 61.8472C483.702 62.2002 483.801 62.6367 483.73 63.0624C483.659 63.4881 483.423 63.8688 483.073 64.1222C482.882 64.2512 482.667 64.3419 482.441 64.3891C483.837 65.3801 485.421 66.0776 487.095 66.4394C485.867 67.5465 484.263 68.1441 482.609 68.1106C480.972 68.0651 479.363 67.6776 477.885 66.9731C477.885 67.9842 479.431 68.8127 478.883 69.6694C478.751 69.8538 478.564 69.9915 478.349 70.0626C476.352 70.9614 474.046 70.0626 472.049 69.0936C471.999 69.5491 471.809 69.9777 471.504 70.32C471.199 70.6623 470.795 70.9012 470.348 71.0035C469.557 71.0922 468.758 70.9559 468.042 70.6103C465.553 69.6413 463.148 68.4476 460.603 67.6752C458.073 66.7818 455.336 66.6452 452.729 67.282C451.871 67.5208 451.055 67.8859 450.198 68.1246C448.825 68.434 447.399 68.4119 446.037 68.0602C444.674 67.7085 443.416 67.0373 442.365 66.1024Z" fill="url(#paint9_linear)"/>
<path d="M472.232 82.2944C469.898 82.0542 467.617 81.4525 465.468 80.5109C465.205 80.96 464.816 81.3219 464.348 81.5516C463.881 81.7813 463.356 81.8687 462.839 81.8029C461.807 81.6517 460.817 81.2934 459.928 80.7497L457.032 79.247C456.129 79.3313 455.22 79.3313 454.318 79.247C446.269 78.5711 438.37 76.677 430.891 73.6297C428.991 72.7344 427.027 71.9833 425.014 71.3827C422.961 70.8912 420.795 70.8069 418.756 70.3575C415.8 69.7049 413.049 68.3405 410.741 66.3833C410.129 65.8754 409.602 65.2734 409.18 64.5997V64.4172C409.048 63.9016 409.073 63.3581 409.254 62.8572C409.434 62.3563 409.761 61.9213 410.193 61.6085C413.975 65.7092 419.502 67.6612 424.831 69.3324C432.227 71.6495 439.708 73.728 447.329 75.371C449.256 75.7923 451.182 76.1715 453.108 76.5226C455.63 77.0001 458.147 77.4214 460.659 77.7865L462.066 77.9972C462.533 78.122 463.03 78.0823 463.472 77.8848C463.767 77.7163 463.992 77.4214 464.329 77.3371C464.537 77.3217 464.746 77.35 464.942 77.4202C465.138 77.4903 465.318 77.6008 465.468 77.7444C466.973 78.8257 471.515 79.9351 472.288 81.4518C472.345 81.587 472.37 81.7335 472.36 81.8798C472.35 82.0261 472.306 82.1681 472.232 82.2944Z" fill="url(#paint10_linear)"/>
<path d="M405.876 89.1055C406.714 88.9385 407.518 88.6298 408.252 88.1927C410.7 87.0275 413.508 86.8712 416.07 87.7573C415.44 87.6949 414.803 87.7584 414.197 87.944C413.591 88.1297 413.028 88.4338 412.541 88.8386C416.169 88.8386 419.792 88.731 423.411 88.5156L419.74 87.2237C421.184 86.4552 422.79 86.0405 424.425 86.0136C426.061 85.9868 427.68 86.3486 429.148 87.0692C428.29 85.1452 425.871 84.8363 423.86 84.8082C422.266 84.6707 420.664 84.9616 419.22 85.6508C418.587 86.03 418.236 86.6057 417.491 86.6619C416.745 86.7181 415.831 86.1283 415.128 86.0019C413.45 85.7279 411.729 85.8674 410.117 86.4083C408.504 86.9491 407.049 87.875 405.876 89.1055Z" fill="#33A96A"/>
<path d="M436.741 98.5427C437.413 98.3792 438.041 98.0726 438.583 97.6439C439.471 97.0656 440.492 96.7223 441.55 96.6461C442.607 96.57 443.667 96.7635 444.629 97.2085C444.131 97.1688 443.63 97.243 443.165 97.4255C442.699 97.608 442.282 97.894 441.944 98.2618C444.756 98.2618 447.568 98.1541 450.38 97.9388L447.568 96.6608C448.625 95.9075 449.887 95.4932 451.185 95.4731C452.484 95.453 453.758 95.8281 454.838 96.5485C454.177 94.6246 452.307 94.3156 450.76 94.2875C449.503 94.1471 448.237 94.4448 447.174 95.1301C446.682 95.5093 446.401 96.071 445.768 96.1412C445.136 96.2115 444.475 95.5935 443.94 95.4812C442.572 95.2217 441.157 95.3741 439.875 95.9192C438.593 96.4643 437.502 97.3774 436.741 98.5427Z" fill="#33A96A"/>
<path d="M370.835 92.3355C371.511 92.1759 372.141 91.8636 372.677 91.4227C373.568 90.8503 374.589 90.5117 375.646 90.438C376.703 90.3644 377.761 90.5581 378.723 91.0014C378.203 90.9372 377.675 91.0008 377.185 91.1868C376.694 91.3728 376.257 91.6755 375.911 92.0687C378.723 92.0687 381.536 91.961 384.348 91.7457L381.536 90.4677C382.595 89.7147 383.858 89.2997 385.158 89.2771C386.458 89.2545 387.734 89.6255 388.819 90.3413C388.144 88.4314 386.274 88.1225 384.727 88.0944C383.471 87.9539 382.204 88.2516 381.142 88.937C380.65 89.3161 380.382 89.8779 379.736 89.9341C379.089 89.9902 378.442 89.4004 377.908 89.2881C376.56 89.0536 375.172 89.217 373.916 89.7583C372.66 90.2996 371.589 91.1953 370.835 92.3355Z" fill="#33A96A"/>
</g>
<path d="M225.253 604H227.017V594.136H225.253V604ZM228.582 604H230.284V599.796C230.284 598.75 230.906 598.039 231.884 598.039C232.854 598.039 233.333 598.62 233.333 599.652V604H235.035V599.311C235.035 597.629 234.126 596.604 232.533 596.604C231.433 596.604 230.694 597.109 230.318 597.889H230.284V596.754H228.582V604ZM242.391 604.144C244.284 604.144 245.351 603.022 245.576 601.908L245.597 601.833H244.004L243.99 601.881C243.826 602.366 243.272 602.817 242.425 602.817C241.317 602.817 240.62 602.065 240.593 600.794H245.665V600.247C245.665 598.06 244.38 596.604 242.309 596.604C240.237 596.604 238.904 598.107 238.904 600.391V600.397C238.904 602.701 240.217 604.144 242.391 604.144ZM242.329 597.937C243.231 597.937 243.888 598.511 244.011 599.659H240.613C240.75 598.545 241.427 597.937 242.329 597.937ZM246.766 604H248.468V599.796C248.468 598.75 249.09 598.039 250.067 598.039C251.038 598.039 251.517 598.62 251.517 599.652V604H253.219V599.311C253.219 597.629 252.31 596.604 250.717 596.604C249.616 596.604 248.878 597.109 248.502 597.889H248.468V596.754H246.766V604ZM255.488 595.715C256.021 595.715 256.432 595.291 256.432 594.785C256.432 594.266 256.021 593.849 255.488 593.849C254.955 593.849 254.538 594.266 254.538 594.785C254.538 595.291 254.955 595.715 255.488 595.715ZM254.634 604H256.336V596.754H254.634V604ZM257.785 604H259.487V599.563C259.487 598.682 260.062 598.039 260.882 598.039C261.675 598.039 262.167 598.545 262.167 599.358V604H263.821V599.522C263.821 598.647 264.382 598.039 265.202 598.039C266.036 598.039 266.501 598.552 266.501 599.447V604H268.203V599.023C268.203 597.574 267.267 596.604 265.838 596.604C264.792 596.604 263.931 597.164 263.582 598.066H263.541C263.274 597.137 262.543 596.604 261.531 596.604C260.574 596.604 259.829 597.123 259.521 597.916H259.487V596.754H257.785V604ZM273.262 595.715C273.795 595.715 274.212 595.291 274.212 594.785C274.212 594.266 273.795 593.849 273.262 593.849C272.735 593.849 272.312 594.266 272.312 594.785C272.312 595.291 272.735 595.715 273.262 595.715ZM271.642 606.413C273.289 606.413 274.116 605.675 274.116 604.205V596.754H272.414V604.178C272.414 604.848 272.147 605.066 271.443 605.066C271.361 605.066 271.286 605.06 271.218 605.06V606.393C271.32 606.406 271.498 606.413 271.642 606.413ZM278.026 604.144C279.12 604.144 279.865 603.638 280.241 602.865H280.275V604H281.978V596.754H280.275V600.951C280.275 602.004 279.653 602.708 278.676 602.708C277.705 602.708 277.227 602.127 277.227 601.102V596.754H275.524V601.437C275.524 603.118 276.434 604.144 278.026 604.144ZM286.209 604.144C287.986 604.144 289.251 603.228 289.251 601.86V601.854C289.251 600.801 288.67 600.213 287.173 599.878L285.963 599.611C285.211 599.44 284.931 599.167 284.931 598.75V598.743C284.931 598.21 285.402 597.861 286.154 597.861C286.947 597.861 287.412 598.285 287.487 598.866L287.494 598.921H289.08L289.073 598.846C289.012 597.595 287.959 596.604 286.154 596.604C284.404 596.604 283.249 597.499 283.249 598.825V598.832C283.249 599.905 283.946 600.582 285.334 600.89L286.537 601.156C287.289 601.327 287.542 601.573 287.542 602.011V602.018C287.542 602.551 287.043 602.886 286.216 602.886C285.354 602.886 284.883 602.517 284.753 601.895L284.739 601.833H283.064L283.071 601.895C283.222 603.241 284.309 604.144 286.209 604.144ZM293.031 604.144C293.373 604.144 293.674 604.109 293.872 604.082V602.804C293.756 602.811 293.626 602.831 293.462 602.831C292.84 602.831 292.525 602.605 292.525 601.895V598.066H293.872V596.754H292.525V594.915H290.796V596.754H289.771V598.066H290.796V602.038C290.796 603.528 291.514 604.144 293.031 604.144ZM298.11 604.144C300.236 604.144 301.617 602.729 301.617 600.377V600.363C301.617 598.025 300.216 596.604 298.104 596.604C295.998 596.604 294.604 598.039 294.604 600.363V600.377C294.604 602.722 295.978 604.144 298.11 604.144ZM298.117 602.77C297.03 602.77 296.34 601.901 296.34 600.377V600.363C296.34 598.859 297.044 597.984 298.104 597.984C299.184 597.984 299.881 598.853 299.881 600.363V600.377C299.881 601.895 299.19 602.77 298.117 602.77ZM302 606.017H303.189L304.188 602.394H302.54L302 606.017ZM307.688 604H309.39V599.755C309.39 598.736 309.971 598.114 310.935 598.114C311.222 598.114 311.481 598.155 311.625 598.21V596.672C311.495 596.638 311.297 596.604 311.085 596.604C310.23 596.604 309.595 597.116 309.376 597.964H309.342V596.754H307.688V604ZM312.548 604H314.25V599.823C314.25 598.771 314.879 598.039 315.843 598.039C316.82 598.039 317.381 598.709 317.381 599.823V604H319.083V599.488C319.083 597.738 318.085 596.604 316.526 596.604C315.439 596.604 314.667 597.103 314.291 597.971H314.25V594.136H312.548V604ZM323.663 604.144C325.789 604.144 327.17 602.729 327.17 600.377V600.363C327.17 598.025 325.769 596.604 323.656 596.604C321.551 596.604 320.156 598.039 320.156 600.363V600.377C320.156 602.722 321.53 604.144 323.663 604.144ZM323.67 602.77C322.583 602.77 321.893 601.901 321.893 600.377V600.363C321.893 598.859 322.597 597.984 323.656 597.984C324.736 597.984 325.434 598.853 325.434 600.363V600.377C325.434 601.895 324.743 602.77 323.67 602.77ZM328.264 604H329.966V599.796C329.966 598.75 330.588 598.039 331.565 598.039C332.536 598.039 333.015 598.62 333.015 599.652V604H334.717V599.311C334.717 597.629 333.808 596.604 332.215 596.604C331.114 596.604 330.376 597.109 330 597.889H329.966V596.754H328.264V604ZM339.283 604.144C341.115 604.144 342.339 602.995 342.469 601.484L342.476 601.437H340.869L340.855 601.498C340.698 602.257 340.151 602.77 339.29 602.77C338.217 602.77 337.52 601.895 337.52 600.384V600.377C337.52 598.894 338.21 597.984 339.283 597.984C340.186 597.984 340.705 598.552 340.849 599.256L340.862 599.317H342.469L342.462 599.263C342.359 597.813 341.17 596.604 339.263 596.604C337.15 596.604 335.783 598.053 335.783 600.363V600.37C335.783 602.694 337.13 604.144 339.283 604.144ZM345.962 604.144C347.056 604.144 347.801 603.638 348.177 602.865H348.211V604H349.913V596.754H348.211V600.951C348.211 602.004 347.589 602.708 346.611 602.708C345.641 602.708 345.162 602.127 345.162 601.102V596.754H343.46V601.437C343.46 603.118 344.369 604.144 345.962 604.144ZM354.145 604.144C355.922 604.144 357.187 603.228 357.187 601.86V601.854C357.187 600.801 356.605 600.213 355.108 599.878L353.898 599.611C353.146 599.44 352.866 599.167 352.866 598.75V598.743C352.866 598.21 353.338 597.861 354.09 597.861C354.883 597.861 355.348 598.285 355.423 598.866L355.43 598.921H357.016L357.009 598.846C356.947 597.595 355.895 596.604 354.09 596.604C352.34 596.604 351.185 597.499 351.185 598.825V598.832C351.185 599.905 351.882 600.582 353.27 600.89L354.473 601.156C355.225 601.327 355.478 601.573 355.478 602.011V602.018C355.478 602.551 354.979 602.886 354.151 602.886C353.29 602.886 352.818 602.517 352.688 601.895L352.675 601.833H351L351.007 601.895C351.157 603.241 352.244 604.144 354.145 604.144ZM363.544 604.144C364.638 604.144 365.383 603.638 365.759 602.865H365.793V604H367.495V596.754H365.793V600.951C365.793 602.004 365.171 602.708 364.193 602.708C363.223 602.708 362.744 602.127 362.744 601.102V596.754H361.042V601.437C361.042 603.118 361.951 604.144 363.544 604.144ZM371.59 604.144C371.932 604.144 372.232 604.109 372.431 604.082V602.804C372.314 602.811 372.185 602.831 372.021 602.831C371.398 602.831 371.084 602.605 371.084 601.895V598.066H372.431V596.754H371.084V594.915H369.354V596.754H368.329V598.066H369.354V602.038C369.354 603.528 370.072 604.144 371.59 604.144ZM373.176 606.017H374.365L375.363 602.394H373.716L373.176 606.017ZM379.766 595.715C380.299 595.715 380.709 595.291 380.709 594.785C380.709 594.266 380.299 593.849 379.766 593.849C379.232 593.849 378.815 594.266 378.815 594.785C378.815 595.291 379.232 595.715 379.766 595.715ZM378.911 604H380.613V596.754H378.911V604ZM382.062 604H383.765V599.563C383.765 598.682 384.339 598.039 385.159 598.039C385.952 598.039 386.444 598.545 386.444 599.358V604H388.099V599.522C388.099 598.647 388.659 598.039 389.479 598.039C390.313 598.039 390.778 598.552 390.778 599.447V604H392.48V599.023C392.48 597.574 391.544 596.604 390.115 596.604C389.069 596.604 388.208 597.164 387.859 598.066H387.818C387.552 597.137 386.82 596.604 385.809 596.604C384.852 596.604 384.106 597.123 383.799 597.916H383.765V596.754H382.062V604ZM393.848 606.393H395.55V602.776H395.584C395.994 603.624 396.821 604.144 397.854 604.144C399.672 604.144 400.834 602.708 400.834 600.384V600.377C400.834 598.039 399.672 596.604 397.833 596.604C396.794 596.604 396.001 597.137 395.584 598.005H395.55V596.754H393.848V606.393ZM397.327 602.708C396.274 602.708 395.536 601.799 395.536 600.384V600.377C395.536 598.955 396.274 598.039 397.327 598.039C398.414 598.039 399.098 598.928 399.098 600.377V600.384C399.098 601.812 398.414 602.708 397.327 602.708ZM405.113 604.144C407.007 604.144 408.073 603.022 408.299 601.908L408.319 601.833H406.727L406.713 601.881C406.549 602.366 405.995 602.817 405.147 602.817C404.04 602.817 403.343 602.065 403.315 600.794H408.388V600.247C408.388 598.06 407.103 596.604 405.031 596.604C402.96 596.604 401.627 598.107 401.627 600.391V600.397C401.627 602.701 402.939 604.144 405.113 604.144ZM405.052 597.937C405.954 597.937 406.61 598.511 406.733 599.659H403.336C403.473 598.545 404.149 597.937 405.052 597.937ZM409.488 604H411.19V599.755C411.19 598.736 411.771 598.114 412.735 598.114C413.022 598.114 413.282 598.155 413.426 598.21V596.672C413.296 596.638 413.098 596.604 412.886 596.604C412.031 596.604 411.396 597.116 411.177 597.964H411.143V596.754H409.488V604ZM416.721 604.144C417.767 604.144 418.566 603.624 418.977 602.77H419.018V604H420.72V594.136H419.018V597.998H418.977C418.566 597.13 417.739 596.604 416.714 596.604C414.896 596.604 413.727 598.032 413.727 600.37V600.377C413.727 602.708 414.889 604.144 416.721 604.144ZM417.233 602.708C416.14 602.708 415.463 601.819 415.463 600.377V600.37C415.463 598.928 416.146 598.039 417.233 598.039C418.279 598.039 419.018 598.955 419.018 600.37V600.377C419.018 601.799 418.286 602.708 417.233 602.708ZM423.051 595.715C423.584 595.715 423.994 595.291 423.994 594.785C423.994 594.266 423.584 593.849 423.051 593.849C422.518 593.849 422.101 594.266 422.101 594.785C422.101 595.291 422.518 595.715 423.051 595.715ZM422.196 604H423.898V596.754H422.196V604ZM428.533 604.144C430.427 604.144 431.493 603.022 431.719 601.908L431.739 601.833H430.146L430.133 601.881C429.969 602.366 429.415 602.817 428.567 602.817C427.46 602.817 426.763 602.065 426.735 600.794H431.808V600.247C431.808 598.06 430.522 596.604 428.451 596.604C426.38 596.604 425.047 598.107 425.047 600.391V600.397C425.047 602.701 426.359 604.144 428.533 604.144ZM428.472 597.937C429.374 597.937 430.03 598.511 430.153 599.659H426.756C426.893 598.545 427.569 597.937 428.472 597.937ZM435.602 604.144C435.943 604.144 436.244 604.109 436.442 604.082V602.804C436.326 602.811 436.196 602.831 436.032 602.831C435.41 602.831 435.096 602.605 435.096 601.895V598.066H436.442V596.754H435.096V594.915H433.366V596.754H432.341V598.066H433.366V602.038C433.366 603.528 434.084 604.144 435.602 604.144ZM442.554 604.123C443.511 604.123 444.317 603.645 444.734 602.886H444.775V604H446.478V599.017C446.478 597.561 445.309 596.604 443.497 596.604C441.658 596.604 440.544 597.567 440.441 598.853L440.435 598.935H442.014L442.027 598.873C442.137 598.34 442.629 597.964 443.436 597.964C444.297 597.964 444.775 598.408 444.775 599.14V599.639L442.882 599.755C441.125 599.864 440.127 600.637 440.127 601.922V601.936C440.127 603.228 441.104 604.123 442.554 604.123ZM441.822 601.867V601.86C441.822 601.286 442.28 600.924 443.121 600.869L444.775 600.767V601.313C444.775 602.175 444.037 602.824 443.06 602.824C442.314 602.824 441.822 602.462 441.822 601.867ZM447.428 606.017H448.617L449.615 602.394H447.968L447.428 606.017ZM455.07 604H456.943L459.493 596.754H457.716L456.041 602.421H456L454.318 596.754H452.507L455.07 604ZM463.205 604.144C465.099 604.144 466.165 603.022 466.391 601.908L466.411 601.833H464.818L464.805 601.881C464.641 602.366 464.087 602.817 463.239 602.817C462.132 602.817 461.435 602.065 461.407 600.794H466.479V600.247C466.479 598.06 465.194 596.604 463.123 596.604C461.052 596.604 459.719 598.107 459.719 600.391V600.397C459.719 602.701 461.031 604.144 463.205 604.144ZM463.144 597.937C464.046 597.937 464.702 598.511 464.825 599.659H461.428C461.564 598.545 462.241 597.937 463.144 597.937ZM467.58 604H469.282V599.796C469.282 598.75 469.904 598.039 470.882 598.039C471.853 598.039 472.331 598.62 472.331 599.652V604H474.033V599.311C474.033 597.629 473.124 596.604 471.531 596.604C470.431 596.604 469.692 597.109 469.316 597.889H469.282V596.754H467.58V604ZM478.586 604.144C480.479 604.144 481.546 603.022 481.771 601.908L481.792 601.833H480.199L480.186 601.881C480.021 602.366 479.468 602.817 478.62 602.817C477.513 602.817 476.815 602.065 476.788 600.794H481.86V600.247C481.86 598.06 480.575 596.604 478.504 596.604C476.433 596.604 475.1 598.107 475.1 600.391V600.397C475.1 602.701 476.412 604.144 478.586 604.144ZM478.524 597.937C479.427 597.937 480.083 598.511 480.206 599.659H476.809C476.945 598.545 477.622 597.937 478.524 597.937ZM482.961 604H484.663V599.796C484.663 598.75 485.285 598.039 486.263 598.039C487.233 598.039 487.712 598.62 487.712 599.652V604H489.414V599.311C489.414 597.629 488.505 596.604 486.912 596.604C485.812 596.604 485.073 597.109 484.697 597.889H484.663V596.754H482.961V604ZM492.921 604.123C493.878 604.123 494.685 603.645 495.102 602.886H495.143V604H496.845V599.017C496.845 597.561 495.676 596.604 493.864 596.604C492.025 596.604 490.911 597.567 490.809 598.853L490.802 598.935H492.381L492.395 598.873C492.504 598.34 492.996 597.964 493.803 597.964C494.664 597.964 495.143 598.408 495.143 599.14V599.639L493.249 599.755C491.492 599.864 490.494 600.637 490.494 601.922V601.936C490.494 603.228 491.472 604.123 492.921 604.123ZM492.189 601.867V601.86C492.189 601.286 492.647 600.924 493.488 600.869L495.143 600.767V601.313C495.143 602.175 494.404 602.824 493.427 602.824C492.682 602.824 492.189 602.462 492.189 601.867ZM500.912 604.144C501.254 604.144 501.555 604.109 501.753 604.082V602.804C501.637 602.811 501.507 602.831 501.343 602.831C500.721 602.831 500.406 602.605 500.406 601.895V598.066H501.753V596.754H500.406V594.915H498.677V596.754H497.651V598.066H498.677V602.038C498.677 603.528 499.395 604.144 500.912 604.144ZM503.824 595.715C504.357 595.715 504.768 595.291 504.768 594.785C504.768 594.266 504.357 593.849 503.824 593.849C503.291 593.849 502.874 594.266 502.874 594.785C502.874 595.291 503.291 595.715 503.824 595.715ZM502.97 604H504.672V596.754H502.97V604ZM508.951 604.144C510.729 604.144 511.993 603.228 511.993 601.86V601.854C511.993 600.801 511.412 600.213 509.915 599.878L508.705 599.611C507.953 599.44 507.673 599.167 507.673 598.75V598.743C507.673 598.21 508.145 597.861 508.896 597.861C509.689 597.861 510.154 598.285 510.229 598.866L510.236 598.921H511.822L511.815 598.846C511.754 597.595 510.701 596.604 508.896 596.604C507.146 596.604 505.991 597.499 505.991 598.825V598.832C505.991 599.905 506.688 600.582 508.076 600.89L509.279 601.156C510.031 601.327 510.284 601.573 510.284 602.011V602.018C510.284 602.551 509.785 602.886 508.958 602.886C508.097 602.886 507.625 602.517 507.495 601.895L507.481 601.833H505.807L505.813 601.895C505.964 603.241 507.051 604.144 508.951 604.144ZM517.838 604H519.711L522.261 596.754H520.483L518.809 602.421H518.768L517.086 596.754H515.274L517.838 604ZM523.949 595.715C524.482 595.715 524.893 595.291 524.893 594.785C524.893 594.266 524.482 593.849 523.949 593.849C523.416 593.849 522.999 594.266 522.999 594.785C522.999 595.291 523.416 595.715 523.949 595.715ZM523.095 604H524.797V596.754H523.095V604ZM528.939 604.144C529.281 604.144 529.582 604.109 529.78 604.082V602.804C529.664 602.811 529.534 602.831 529.37 602.831C528.748 602.831 528.434 602.605 528.434 601.895V598.066H529.78V596.754H528.434V594.915H526.704V596.754H525.679V598.066H526.704V602.038C526.704 603.528 527.422 604.144 528.939 604.144ZM532.993 604.123C533.95 604.123 534.757 603.645 535.174 602.886H535.215V604H536.917V599.017C536.917 597.561 535.748 596.604 533.937 596.604C532.098 596.604 530.983 597.567 530.881 598.853L530.874 598.935H532.453L532.467 598.873C532.576 598.34 533.068 597.964 533.875 597.964C534.736 597.964 535.215 598.408 535.215 599.14V599.639L533.321 599.755C531.564 599.864 530.566 600.637 530.566 601.922V601.936C530.566 603.228 531.544 604.123 532.993 604.123ZM532.262 601.867V601.86C532.262 601.286 532.72 600.924 533.561 600.869L535.215 600.767V601.313C535.215 602.175 534.477 602.824 533.499 602.824C532.754 602.824 532.262 602.462 532.262 601.867ZM541.477 604.144C543.37 604.144 544.437 603.022 544.662 601.908L544.683 601.833H543.09L543.076 601.881C542.912 602.366 542.358 602.817 541.511 602.817C540.403 602.817 539.706 602.065 539.679 600.794H544.751V600.247C544.751 598.06 543.466 596.604 541.395 596.604C539.323 596.604 537.99 598.107 537.99 600.391V600.397C537.99 602.701 539.303 604.144 541.477 604.144ZM541.415 597.937C542.317 597.937 542.974 598.511 543.097 599.659H539.699C539.836 598.545 540.513 597.937 541.415 597.937ZM545.428 606.017H546.617L547.615 602.394H545.968L545.428 606.017ZM215.936 612.715C216.469 612.715 216.886 612.291 216.886 611.785C216.886 611.266 216.469 610.849 215.936 610.849C215.409 610.849 214.985 611.266 214.985 611.785C214.985 612.291 215.409 612.715 215.936 612.715ZM214.315 623.413C215.963 623.413 216.79 622.675 216.79 621.205V613.754H215.088V621.178C215.088 621.848 214.821 622.066 214.117 622.066C214.035 622.066 213.96 622.06 213.892 622.06V623.393C213.994 623.406 214.172 623.413 214.315 623.413ZM220.7 621.144C221.794 621.144 222.539 620.638 222.915 619.865H222.949V621H224.651V613.754H222.949V617.951C222.949 619.004 222.327 619.708 221.35 619.708C220.379 619.708 219.9 619.127 219.9 618.102V613.754H218.198V618.437C218.198 620.118 219.107 621.144 220.7 621.144ZM228.883 621.144C230.66 621.144 231.925 620.228 231.925 618.86V618.854C231.925 617.801 231.344 617.213 229.847 616.878L228.637 616.611C227.885 616.44 227.604 616.167 227.604 615.75V615.743C227.604 615.21 228.076 614.861 228.828 614.861C229.621 614.861 230.086 615.285 230.161 615.866L230.168 615.921H231.754L231.747 615.846C231.686 614.595 230.633 613.604 228.828 613.604C227.078 613.604 225.923 614.499 225.923 615.825V615.832C225.923 616.905 226.62 617.582 228.008 617.89L229.211 618.156C229.963 618.327 230.216 618.573 230.216 619.011V619.018C230.216 619.551 229.717 619.886 228.89 619.886C228.028 619.886 227.557 619.517 227.427 618.895L227.413 618.833H225.738L225.745 618.895C225.896 620.241 226.982 621.144 228.883 621.144ZM235.705 621.144C236.047 621.144 236.348 621.109 236.546 621.082V619.804C236.43 619.811 236.3 619.831 236.136 619.831C235.514 619.831 235.199 619.605 235.199 618.895V615.066H236.546V613.754H235.199V611.915H233.47V613.754H232.444V615.066H233.47V619.038C233.47 620.528 234.188 621.144 235.705 621.144ZM240.784 621.144C242.91 621.144 244.291 619.729 244.291 617.377V617.363C244.291 615.025 242.89 613.604 240.777 613.604C238.672 613.604 237.277 615.039 237.277 617.363V617.377C237.277 619.722 238.651 621.144 240.784 621.144ZM240.791 619.77C239.704 619.77 239.014 618.901 239.014 617.377V617.363C239.014 615.859 239.718 614.984 240.777 614.984C241.857 614.984 242.555 615.853 242.555 617.363V617.377C242.555 618.895 241.864 619.77 240.791 619.77ZM246.021 621.109C246.574 621.109 247.005 620.672 247.005 620.118C247.005 619.571 246.574 619.134 246.021 619.134C245.467 619.134 245.029 619.571 245.029 620.118C245.029 620.672 245.467 621.109 246.021 621.109ZM250.532 621H252.289V614.062H252.323L257.143 621H258.715V611.136H256.965V618.047H256.924L252.118 611.136H250.532V621ZM262.755 621.144C263.849 621.144 264.594 620.638 264.97 619.865H265.004V621H266.706V613.754H265.004V617.951C265.004 619.004 264.382 619.708 263.404 619.708C262.434 619.708 261.955 619.127 261.955 618.102V613.754H260.253V618.437C260.253 620.118 261.162 621.144 262.755 621.144ZM268.155 621H269.857V611.136H268.155V621ZM271.354 621H273.057V611.136H271.354V621ZM276.646 621.123C277.603 621.123 278.409 620.645 278.826 619.886H278.867V621H280.569V616.017C280.569 614.561 279.4 613.604 277.589 613.604C275.75 613.604 274.636 614.567 274.533 615.853L274.526 615.935H276.105L276.119 615.873C276.229 615.34 276.721 614.964 277.527 614.964C278.389 614.964 278.867 615.408 278.867 616.14V616.639L276.974 616.755C275.217 616.864 274.219 617.637 274.219 618.922V618.936C274.219 620.228 275.196 621.123 276.646 621.123ZM275.914 618.867V618.86C275.914 618.286 276.372 617.924 277.213 617.869L278.867 617.767V618.313C278.867 619.175 278.129 619.824 277.151 619.824C276.406 619.824 275.914 619.462 275.914 618.867ZM281.943 621H283.646V616.563C283.646 615.682 284.22 615.039 285.04 615.039C285.833 615.039 286.325 615.545 286.325 616.358V621H287.979V616.522C287.979 615.647 288.54 615.039 289.36 615.039C290.194 615.039 290.659 615.552 290.659 616.447V621H292.361V616.023C292.361 614.574 291.425 613.604 289.996 613.604C288.95 613.604 288.089 614.164 287.74 615.066H287.699C287.433 614.137 286.701 613.604 285.689 613.604C284.732 613.604 283.987 614.123 283.68 614.916H283.646V613.754H281.943V621ZM299.225 621.144C300.271 621.144 301.07 620.624 301.48 619.77H301.521V621H303.224V611.136H301.521V614.998H301.48C301.07 614.13 300.243 613.604 299.218 613.604C297.399 613.604 296.23 615.032 296.23 617.37V617.377C296.23 619.708 297.393 621.144 299.225 621.144ZM299.737 619.708C298.644 619.708 297.967 618.819 297.967 617.377V617.37C297.967 615.928 298.65 615.039 299.737 615.039C300.783 615.039 301.521 615.955 301.521 617.37V617.377C301.521 618.799 300.79 619.708 299.737 619.708ZM305.555 612.715C306.088 612.715 306.498 612.291 306.498 611.785C306.498 611.266 306.088 610.849 305.555 610.849C305.021 610.849 304.604 611.266 304.604 611.785C304.604 612.291 305.021 612.715 305.555 612.715ZM304.7 621H306.402V613.754H304.7V621ZM311.051 621.144C312.883 621.144 314.106 619.995 314.236 618.484L314.243 618.437H312.637L312.623 618.498C312.466 619.257 311.919 619.77 311.058 619.77C309.984 619.77 309.287 618.895 309.287 617.384V617.377C309.287 615.894 309.978 614.984 311.051 614.984C311.953 614.984 312.473 615.552 312.616 616.256L312.63 616.317H314.236L314.229 616.263C314.127 614.813 312.938 613.604 311.03 613.604C308.918 613.604 307.551 615.053 307.551 617.363V617.37C307.551 619.694 308.897 621.144 311.051 621.144ZM317.955 621.144C318.297 621.144 318.598 621.109 318.796 621.082V619.804C318.68 619.811 318.55 619.831 318.386 619.831C317.764 619.831 317.449 619.605 317.449 618.895V615.066H318.796V613.754H317.449V611.915H315.72V613.754H314.694V615.066H315.72V619.038C315.72 620.528 316.438 621.144 317.955 621.144ZM322.433 621.144C323.526 621.144 324.271 620.638 324.647 619.865H324.682V621H326.384V613.754H324.682V617.951C324.682 619.004 324.06 619.708 323.082 619.708C322.111 619.708 321.633 619.127 321.633 618.102V613.754H319.931V618.437C319.931 620.118 320.84 621.144 322.433 621.144ZM327.785 621H329.487V616.563C329.487 615.682 330.062 615.039 330.882 615.039C331.675 615.039 332.167 615.545 332.167 616.358V621H333.821V616.522C333.821 615.647 334.382 615.039 335.202 615.039C336.036 615.039 336.501 615.552 336.501 616.447V621H338.203V616.023C338.203 614.574 337.267 613.604 335.838 613.604C334.792 613.604 333.931 614.164 333.582 615.066H333.541C333.274 614.137 332.543 613.604 331.531 613.604C330.574 613.604 329.829 614.123 329.521 614.916H329.487V613.754H327.785V621ZM342.845 621H344.547V615.066H345.969V613.754H344.513V613.111C344.513 612.523 344.82 612.216 345.483 612.216C345.668 612.216 345.859 612.229 345.996 612.25V611.061C345.784 611.02 345.422 610.992 345.087 610.992C343.515 610.992 342.845 611.648 342.845 613.063V613.754H341.854V615.066H342.845V621ZM349.701 621.144C351.595 621.144 352.661 620.022 352.887 618.908L352.907 618.833H351.314L351.301 618.881C351.137 619.366 350.583 619.817 349.735 619.817C348.628 619.817 347.931 619.065 347.903 617.794H352.976V617.247C352.976 615.06 351.69 613.604 349.619 613.604C347.548 613.604 346.215 615.107 346.215 617.391V617.397C346.215 619.701 347.527 621.144 349.701 621.144ZM349.64 614.937C350.542 614.937 351.198 615.511 351.321 616.659H347.924C348.061 615.545 348.737 614.937 349.64 614.937ZM354.124 621H355.826V611.136H354.124V621ZM358.178 612.715C358.711 612.715 359.121 612.291 359.121 611.785C359.121 611.266 358.711 610.849 358.178 610.849C357.645 610.849 357.228 611.266 357.228 611.785C357.228 612.291 357.645 612.715 358.178 612.715ZM357.323 621H359.025V613.754H357.323V621ZM363.305 621.144C365.082 621.144 366.347 620.228 366.347 618.86V618.854C366.347 617.801 365.766 617.213 364.269 616.878L363.059 616.611C362.307 616.44 362.026 616.167 362.026 615.75V615.743C362.026 615.21 362.498 614.861 363.25 614.861C364.043 614.861 364.508 615.285 364.583 615.866L364.59 615.921H366.176L366.169 615.846C366.107 614.595 365.055 613.604 363.25 613.604C361.5 613.604 360.345 614.499 360.345 615.825V615.832C360.345 616.905 361.042 617.582 362.43 617.89L363.633 618.156C364.385 618.327 364.638 618.573 364.638 619.011V619.018C364.638 619.551 364.139 619.886 363.312 619.886C362.45 619.886 361.979 619.517 361.849 618.895L361.835 618.833H360.16L360.167 618.895C360.317 620.241 361.404 621.144 363.305 621.144ZM373.422 621.144C375.315 621.144 376.382 620.022 376.607 618.908L376.628 618.833H375.035L375.021 618.881C374.857 619.366 374.304 619.817 373.456 619.817C372.349 619.817 371.651 619.065 371.624 617.794H376.696V617.247C376.696 615.06 375.411 613.604 373.34 613.604C371.269 613.604 369.936 615.107 369.936 617.391V617.397C369.936 619.701 371.248 621.144 373.422 621.144ZM373.36 614.937C374.263 614.937 374.919 615.511 375.042 616.659H371.645C371.781 615.545 372.458 614.937 373.36 614.937ZM380.265 621.144C381.358 621.144 382.104 620.638 382.479 619.865H382.514V621H384.216V613.754H382.514V617.951C382.514 619.004 381.892 619.708 380.914 619.708C379.943 619.708 379.465 619.127 379.465 618.102V613.754H377.763V618.437C377.763 620.118 378.672 621.144 380.265 621.144ZM388.42 623.393H390.122V619.776H390.156C390.566 620.624 391.394 621.144 392.426 621.144C394.244 621.144 395.406 619.708 395.406 617.384V617.377C395.406 615.039 394.244 613.604 392.405 613.604C391.366 613.604 390.573 614.137 390.156 615.005H390.122V613.754H388.42V623.393ZM391.899 619.708C390.847 619.708 390.108 618.799 390.108 617.384V617.377C390.108 615.955 390.847 615.039 391.899 615.039C392.986 615.039 393.67 615.928 393.67 617.377V617.384C393.67 618.812 392.986 619.708 391.899 619.708ZM399.686 621.144C401.579 621.144 402.646 620.022 402.871 618.908L402.892 618.833H401.299L401.285 618.881C401.121 619.366 400.567 619.817 399.72 619.817C398.612 619.817 397.915 619.065 397.888 617.794H402.96V617.247C402.96 615.06 401.675 613.604 399.604 613.604C397.532 613.604 396.199 615.107 396.199 617.391V617.397C396.199 619.701 397.512 621.144 399.686 621.144ZM399.624 614.937C400.526 614.937 401.183 615.511 401.306 616.659H397.908C398.045 615.545 398.722 614.937 399.624 614.937ZM406.754 621.144C407.8 621.144 408.6 620.624 409.01 619.77H409.051V621H410.753V611.136H409.051V614.998H409.01C408.6 614.13 407.772 613.604 406.747 613.604C404.929 613.604 403.76 615.032 403.76 617.37V617.377C403.76 619.708 404.922 621.144 406.754 621.144ZM407.267 619.708C406.173 619.708 405.496 618.819 405.496 617.377V617.37C405.496 615.928 406.18 615.039 407.267 615.039C408.312 615.039 409.051 615.955 409.051 617.37V617.377C409.051 618.799 408.319 619.708 407.267 619.708ZM415.367 621.144C417.261 621.144 418.327 620.022 418.553 618.908L418.573 618.833H416.98L416.967 618.881C416.803 619.366 416.249 619.817 415.401 619.817C414.294 619.817 413.597 619.065 413.569 617.794H418.642V617.247C418.642 615.06 417.356 613.604 415.285 613.604C413.214 613.604 411.881 615.107 411.881 617.391V617.397C411.881 619.701 413.193 621.144 415.367 621.144ZM415.306 614.937C416.208 614.937 416.864 615.511 416.987 616.659H413.59C413.727 615.545 414.403 614.937 415.306 614.937ZM422.545 621H424.247V616.563C424.247 615.682 424.821 615.039 425.642 615.039C426.435 615.039 426.927 615.545 426.927 616.358V621H428.581V616.522C428.581 615.647 429.142 615.039 429.962 615.039C430.796 615.039 431.261 615.552 431.261 616.447V621H432.963V616.023C432.963 614.574 432.026 613.604 430.598 613.604C429.552 613.604 428.69 614.164 428.342 615.066H428.301C428.034 614.137 427.303 613.604 426.291 613.604C425.334 613.604 424.589 614.123 424.281 614.916H424.247V613.754H422.545V621ZM437.536 621.144C439.662 621.144 441.043 619.729 441.043 617.377V617.363C441.043 615.025 439.642 613.604 437.529 613.604C435.424 613.604 434.029 615.039 434.029 617.363V617.377C434.029 619.722 435.403 621.144 437.536 621.144ZM437.543 619.77C436.456 619.77 435.766 618.901 435.766 617.377V617.363C435.766 615.859 436.47 614.984 437.529 614.984C438.609 614.984 439.307 615.853 439.307 617.363V617.377C439.307 618.895 438.616 619.77 437.543 619.77ZM442.185 621H443.887V611.136H442.185V621ZM445.384 621H447.086V611.136H445.384V621ZM449.438 612.715C449.971 612.715 450.381 612.291 450.381 611.785C450.381 611.266 449.971 610.849 449.438 610.849C448.904 610.849 448.487 611.266 448.487 611.785C448.487 612.291 448.904 612.715 449.438 612.715ZM448.583 621H450.285V613.754H448.583V621ZM454.564 621.144C456.342 621.144 457.606 620.228 457.606 618.86V618.854C457.606 617.801 457.025 617.213 455.528 616.878L454.318 616.611C453.566 616.44 453.286 616.167 453.286 615.75V615.743C453.286 615.21 453.758 614.861 454.51 614.861C455.303 614.861 455.768 615.285 455.843 615.866L455.85 615.921H457.436L457.429 615.846C457.367 614.595 456.314 613.604 454.51 613.604C452.76 613.604 451.604 614.499 451.604 615.825V615.832C451.604 616.905 452.302 617.582 453.689 617.89L454.893 618.156C455.645 618.327 455.897 618.573 455.897 619.011V619.018C455.897 619.551 455.398 619.886 454.571 619.886C453.71 619.886 453.238 619.517 453.108 618.895L453.095 618.833H451.42L451.427 618.895C451.577 620.241 452.664 621.144 454.564 621.144ZM461.496 623.393H463.198V619.776H463.232C463.643 620.624 464.47 621.144 465.502 621.144C467.32 621.144 468.482 619.708 468.482 617.384V617.377C468.482 615.039 467.32 613.604 465.481 613.604C464.442 613.604 463.649 614.137 463.232 615.005H463.198V613.754H461.496V623.393ZM464.976 619.708C463.923 619.708 463.185 618.799 463.185 617.384V617.377C463.185 615.955 463.923 615.039 464.976 615.039C466.062 615.039 466.746 615.928 466.746 617.377V617.384C466.746 618.812 466.062 619.708 464.976 619.708ZM469.576 621H471.278V616.755C471.278 615.736 471.859 615.114 472.823 615.114C473.11 615.114 473.37 615.155 473.514 615.21V613.672C473.384 613.638 473.186 613.604 472.974 613.604C472.119 613.604 471.483 614.116 471.265 614.964H471.23V613.754H469.576V621ZM477.301 621.144C479.194 621.144 480.261 620.022 480.486 618.908L480.507 618.833H478.914L478.9 618.881C478.736 619.366 478.183 619.817 477.335 619.817C476.228 619.817 475.53 619.065 475.503 617.794H480.575V617.247C480.575 615.06 479.29 613.604 477.219 613.604C475.147 613.604 473.814 615.107 473.814 617.391V617.397C473.814 619.701 475.127 621.144 477.301 621.144ZM477.239 614.937C478.142 614.937 478.798 615.511 478.921 616.659H475.523C475.66 615.545 476.337 614.937 477.239 614.937ZM484.369 621.144C484.711 621.144 485.012 621.109 485.21 621.082V619.804C485.094 619.811 484.964 619.831 484.8 619.831C484.178 619.831 483.863 619.605 483.863 618.895V615.066H485.21V613.754H483.863V611.915H482.134V613.754H481.108V615.066H482.134V619.038C482.134 620.528 482.852 621.144 484.369 621.144ZM487.281 612.715C487.814 612.715 488.225 612.291 488.225 611.785C488.225 611.266 487.814 610.849 487.281 610.849C486.748 610.849 486.331 611.266 486.331 611.785C486.331 612.291 486.748 612.715 487.281 612.715ZM486.427 621H488.129V613.754H486.427V621ZM492.046 621.144C493.14 621.144 493.885 620.638 494.261 619.865H494.295V621H495.997V613.754H494.295V617.951C494.295 619.004 493.673 619.708 492.695 619.708C491.725 619.708 491.246 619.127 491.246 618.102V613.754H489.544V618.437C489.544 620.118 490.453 621.144 492.046 621.144ZM497.398 621H499.101V616.563C499.101 615.682 499.675 615.039 500.495 615.039C501.288 615.039 501.78 615.545 501.78 616.358V621H503.435V616.522C503.435 615.647 503.995 615.039 504.815 615.039C505.649 615.039 506.114 615.552 506.114 616.447V621H507.816V616.023C507.816 614.574 506.88 613.604 505.451 613.604C504.405 613.604 503.544 614.164 503.195 615.066H503.154C502.888 614.137 502.156 613.604 501.145 613.604C500.188 613.604 499.442 614.123 499.135 614.916H499.101V613.754H497.398V621ZM510.106 621.109C510.66 621.109 511.091 620.672 511.091 620.118C511.091 619.571 510.66 619.134 510.106 619.134C509.553 619.134 509.115 619.571 509.115 620.118C509.115 620.672 509.553 621.109 510.106 621.109ZM514.618 621H516.382V611.136H514.618V621ZM517.947 621H519.649V616.796C519.649 615.75 520.271 615.039 521.249 615.039C522.22 615.039 522.698 615.62 522.698 616.652V621H524.4V616.311C524.4 614.629 523.491 613.604 521.898 613.604C520.798 613.604 520.06 614.109 519.684 614.889H519.649V613.754H517.947V621ZM528.461 621.144C528.803 621.144 529.104 621.109 529.302 621.082V619.804C529.186 619.811 529.056 619.831 528.892 619.831C528.27 619.831 527.955 619.605 527.955 618.895V615.066H529.302V613.754H527.955V611.915H526.226V613.754H525.2V615.066H526.226V619.038C526.226 620.528 526.943 621.144 528.461 621.144ZM533.52 621.144C535.413 621.144 536.479 620.022 536.705 618.908L536.726 618.833H535.133L535.119 618.881C534.955 619.366 534.401 619.817 533.554 619.817C532.446 619.817 531.749 619.065 531.722 617.794H536.794V617.247C536.794 615.06 535.509 613.604 533.438 613.604C531.366 613.604 530.033 615.107 530.033 617.391V617.397C530.033 619.701 531.346 621.144 533.52 621.144ZM533.458 614.937C534.36 614.937 535.017 615.511 535.14 616.659H531.742C531.879 615.545 532.556 614.937 533.458 614.937ZM541.162 623.536C543.261 623.536 544.58 622.436 544.58 620.795V613.754H542.878V614.984H542.837C542.427 614.15 541.634 613.604 540.608 613.604C538.776 613.604 537.594 615.012 537.594 617.302V617.309C537.594 619.564 538.763 620.959 540.581 620.959C541.62 620.959 542.44 620.467 542.844 619.694H542.878V620.74C542.878 621.663 542.27 622.251 541.162 622.251C540.273 622.251 539.692 621.937 539.508 621.52L539.487 621.465H537.812L537.826 621.526C538.031 622.661 539.241 623.536 541.162 623.536ZM541.114 619.646C540.021 619.646 539.33 618.765 539.33 617.336V617.329C539.33 615.921 540.021 615.039 541.114 615.039C542.167 615.039 542.885 615.935 542.885 617.336V617.343C542.885 618.751 542.174 619.646 541.114 619.646ZM549.16 621.144C551.054 621.144 552.12 620.022 552.346 618.908L552.366 618.833H550.773L550.76 618.881C550.596 619.366 550.042 619.817 549.194 619.817C548.087 619.817 547.39 619.065 547.362 617.794H552.435V617.247C552.435 615.06 551.149 613.604 549.078 613.604C547.007 613.604 545.674 615.107 545.674 617.391V617.397C545.674 619.701 546.986 621.144 549.16 621.144ZM549.099 614.937C550.001 614.937 550.657 615.511 550.78 616.659H547.383C547.52 615.545 548.196 614.937 549.099 614.937ZM553.535 621H555.237V616.755C555.237 615.736 555.818 615.114 556.782 615.114C557.069 615.114 557.329 615.155 557.473 615.21V613.672C557.343 613.638 557.145 613.604 556.933 613.604C556.078 613.604 555.442 614.116 555.224 614.964H555.189V613.754H553.535V621ZM360.762 638.144C361.104 638.144 361.404 638.109 361.603 638.082V636.804C361.486 636.811 361.356 636.831 361.192 636.831C360.57 636.831 360.256 636.605 360.256 635.895V632.066H361.603V630.754H360.256V628.915H358.526V630.754H357.501V632.066H358.526V636.038C358.526 637.528 359.244 638.144 360.762 638.144ZM363.674 629.715C364.207 629.715 364.617 629.291 364.617 628.785C364.617 628.266 364.207 627.849 363.674 627.849C363.141 627.849 362.724 628.266 362.724 628.785C362.724 629.291 363.141 629.715 363.674 629.715ZM362.819 638H364.521V630.754H362.819V638ZM365.971 638H367.673V633.796C367.673 632.75 368.295 632.039 369.272 632.039C370.243 632.039 370.722 632.62 370.722 633.652V638H372.424V633.311C372.424 631.629 371.515 630.604 369.922 630.604C368.821 630.604 368.083 631.109 367.707 631.889H367.673V630.754H365.971V638ZM376.99 638.144C378.822 638.144 380.046 636.995 380.176 635.484L380.183 635.437H378.576L378.562 635.498C378.405 636.257 377.858 636.77 376.997 636.77C375.924 636.77 375.227 635.895 375.227 634.384V634.377C375.227 632.894 375.917 631.984 376.99 631.984C377.893 631.984 378.412 632.552 378.556 633.256L378.569 633.317H380.176L380.169 633.263C380.066 631.813 378.877 630.604 376.97 630.604C374.857 630.604 373.49 632.053 373.49 634.363V634.37C373.49 636.694 374.837 638.144 376.99 638.144ZM382.104 629.715C382.637 629.715 383.047 629.291 383.047 628.785C383.047 628.266 382.637 627.849 382.104 627.849C381.57 627.849 381.153 628.266 381.153 628.785C381.153 629.291 381.57 629.715 382.104 629.715ZM381.249 638H382.951V630.754H381.249V638ZM387.094 638.144C388.14 638.144 388.939 637.624 389.35 636.77H389.391V638H391.093V628.136H389.391V631.998H389.35C388.939 631.13 388.112 630.604 387.087 630.604C385.269 630.604 384.1 632.032 384.1 634.37V634.377C384.1 636.708 385.262 638.144 387.094 638.144ZM387.606 636.708C386.513 636.708 385.836 635.819 385.836 634.377V634.37C385.836 632.928 386.52 632.039 387.606 632.039C388.652 632.039 389.391 632.955 389.391 634.37V634.377C389.391 635.799 388.659 636.708 387.606 636.708ZM394.989 638.144C396.083 638.144 396.828 637.638 397.204 636.865H397.238V638H398.94V630.754H397.238V634.951C397.238 636.004 396.616 636.708 395.639 636.708C394.668 636.708 394.189 636.127 394.189 635.102V630.754H392.487V635.437C392.487 637.118 393.396 638.144 394.989 638.144ZM400.342 638H402.044V633.796C402.044 632.75 402.666 632.039 403.644 632.039C404.614 632.039 405.093 632.62 405.093 633.652V638H406.795V633.311C406.795 631.629 405.886 630.604 404.293 630.604C403.192 630.604 402.454 631.109 402.078 631.889H402.044V630.754H400.342V638ZM410.855 638.144C411.197 638.144 411.498 638.109 411.696 638.082V636.804C411.58 636.811 411.45 636.831 411.286 636.831C410.664 636.831 410.35 636.605 410.35 635.895V632.066H411.696V630.754H410.35V628.915H408.62V630.754H407.595V632.066H408.62V636.038C408.62 637.528 409.338 638.144 410.855 638.144ZM413.788 638.109C414.342 638.109 414.772 637.672 414.772 637.118C414.772 636.571 414.342 636.134 413.788 636.134C413.234 636.134 412.797 636.571 412.797 637.118C412.797 637.672 413.234 638.109 413.788 638.109Z" fill="#FBFBFB"/>
<path d="M200.094 497H212.785L220.801 466.555H221.047L229.098 497H241.789L255.043 446.27H241.719L234.828 479.809H234.582L226.355 446.27H215.527L207.301 479.809H207.055L200.164 446.27H186.84L200.094 497ZM273.324 497.809C285.523 497.809 290.34 490.637 291.5 485.328L291.605 484.906H280.355L280.32 485.082C279.758 486.664 277.578 488.949 273.57 488.949C269.035 488.949 266.223 485.891 266.082 480.723H291.816V477.066C291.816 465.465 284.469 457.906 272.902 457.906C261.266 457.906 253.883 465.535 253.883 477.84V477.875C253.883 490.25 261.23 497.809 273.324 497.809ZM273.184 466.766C276.84 466.766 279.441 469.086 280.074 473.375H266.258C266.891 469.156 269.527 466.766 273.184 466.766ZM296.879 497H309.359V446.27H296.879V497ZM333.898 497.809C344.938 497.809 351.652 491.129 351.898 482.234V481.988H340.473L340.402 482.34C339.91 485.996 337.695 488.352 334.039 488.352C329.609 488.352 327.078 484.625 327.078 477.875V477.84C327.078 471.195 329.68 467.363 334.004 467.363C337.66 467.363 339.91 469.824 340.402 473.375L340.438 473.727H351.898L351.863 473.48C351.688 464.375 344.586 457.906 333.793 457.906C321.875 457.906 314.422 465.465 314.422 477.805V477.84C314.422 490.25 321.84 497.809 333.898 497.809ZM374.926 497.809C386.984 497.809 394.508 490.531 394.508 477.875V477.805C394.508 465.324 386.844 457.906 374.926 457.906C363.043 457.906 355.344 465.395 355.344 477.805V477.875C355.344 490.496 362.797 497.809 374.926 497.809ZM374.961 488.352C370.637 488.352 368 484.625 368 477.875V477.805C368 471.195 370.707 467.363 374.926 467.363C379.145 467.363 381.887 471.195 381.887 477.805V477.875C381.887 484.59 379.215 488.352 374.961 488.352ZM399.324 497H411.805V474.359C411.805 470.562 413.984 468.066 417.359 468.066C420.77 468.066 422.668 470.176 422.668 474.043V497H434.586V474.289C434.586 470.492 436.695 468.066 440.07 468.066C443.586 468.066 445.449 470.141 445.449 474.148V497H457.93V470.949C457.93 463.18 452.832 457.906 445.344 457.906C439.648 457.906 435.008 461.141 433.531 466.098H433.285C432.195 460.895 428.293 457.906 422.844 457.906C417.605 457.906 413.527 460.93 412.051 465.605H411.805V458.715H399.324V497ZM482.082 497.809C494.281 497.809 499.098 490.637 500.258 485.328L500.363 484.906H489.113L489.078 485.082C488.516 486.664 486.336 488.949 482.328 488.949C477.793 488.949 474.98 485.891 474.84 480.723H500.574V477.066C500.574 465.465 493.227 457.906 481.66 457.906C470.023 457.906 462.641 465.535 462.641 477.84V477.875C462.641 490.25 469.988 497.809 482.082 497.809ZM481.941 466.766C485.598 466.766 488.199 469.086 488.832 473.375H475.016C475.648 469.156 478.285 466.766 481.941 466.766ZM536.047 497.809C538.648 497.809 540.512 497.598 541.883 497.352V488.492C541.18 488.598 540.547 488.668 539.562 488.668C536.504 488.668 535.027 487.438 535.027 484.133V467.855H541.883V458.715H535.027V449.891H522.547V458.715H517.344V467.855H522.547V485.82C522.547 494.469 526.766 497.809 536.047 497.809ZM565.191 497.809C577.25 497.809 584.773 490.531 584.773 477.875V477.805C584.773 465.324 577.109 457.906 565.191 457.906C553.309 457.906 545.609 465.395 545.609 477.805V477.875C545.609 490.496 553.062 497.809 565.191 497.809ZM565.227 488.352C560.902 488.352 558.266 484.625 558.266 477.875V477.805C558.266 471.195 560.973 467.363 565.191 467.363C569.41 467.363 572.152 471.195 572.152 477.805V477.875C572.152 484.59 569.48 488.352 565.227 488.352Z" fill="#FBFBFB"/>
<path d="M181.109 566.914C194.293 566.914 203.574 558.441 204.031 547.086L204.066 546.699H191.656L191.586 547.086C190.707 552.746 186.734 556.227 181.145 556.227C174.078 556.227 169.578 550.391 169.578 540.582V540.547C169.578 530.844 174.043 525.043 181.109 525.043C187.016 525.043 190.707 528.77 191.516 534.043L191.586 534.57H203.996V534.219C203.539 522.863 194.363 514.355 181.109 514.355C165.957 514.355 156.43 524.023 156.43 540.582V540.617C156.43 557.176 165.887 566.914 181.109 566.914ZM220.52 566.527C225.512 566.527 229.309 564.348 231.488 560.586H231.734V566H244.18V539.879C244.18 532.109 237.395 526.906 227.094 526.906C216.441 526.906 210.078 532.004 209.48 539.457L209.445 539.914H220.66L220.73 539.562C221.152 537.594 223.121 536.047 226.461 536.047C229.941 536.047 231.734 537.77 231.734 540.547V542.445L223.016 543.008C213.137 543.676 207.582 547.719 207.582 554.926V554.961C207.582 561.641 212.82 566.527 220.52 566.527ZM219.816 554.152V554.117C219.816 551.832 221.539 550.391 225.02 550.18L231.734 549.723V552.289C231.734 555.523 228.887 557.914 224.879 557.914C221.82 557.914 219.816 556.543 219.816 554.152ZM250.367 566H262.848V515.27H250.367V566ZM269.281 566H281.762V515.27H269.281V566ZM299.48 566.527C304.473 566.527 308.27 564.348 310.449 560.586H310.695V566H323.141V539.879C323.141 532.109 316.355 526.906 306.055 526.906C295.402 526.906 289.039 532.004 288.441 539.457L288.406 539.914H299.621L299.691 539.562C300.113 537.594 302.082 536.047 305.422 536.047C308.902 536.047 310.695 537.77 310.695 540.547V542.445L301.977 543.008C292.098 543.676 286.543 547.719 286.543 554.926V554.961C286.543 561.641 291.781 566.527 299.48 566.527ZM298.777 554.152V554.117C298.777 551.832 300.5 550.391 303.98 550.18L310.695 549.723V552.289C310.695 555.523 307.848 557.914 303.84 557.914C300.781 557.914 298.777 556.543 298.777 554.152ZM329.398 566H341.844V554.223L344.094 551.516L353.41 566H367.754L353.445 544.098L366.945 527.715H353.059L342.09 542.234H341.844V515.27H329.398V566ZM386.492 566.809C398.551 566.809 406.074 559.531 406.074 546.875V546.805C406.074 534.324 398.41 526.906 386.492 526.906C374.609 526.906 366.91 534.395 366.91 546.805V546.875C366.91 559.496 374.363 566.809 386.492 566.809ZM386.527 557.352C382.203 557.352 379.566 553.625 379.566 546.875V546.805C379.566 540.195 382.273 536.363 386.492 536.363C390.711 536.363 393.453 540.195 393.453 546.805V546.875C393.453 553.59 390.781 557.352 386.527 557.352ZM414.02 566H426.5V536.855H433.602V527.715H426.148V526.062C426.148 523.848 427.59 522.547 431.035 522.547C431.984 522.547 432.969 522.582 433.672 522.723V514.988C432.301 514.707 429.875 514.461 427.695 514.461C417.676 514.461 414.02 517.941 414.02 525.5V527.715H408.922V536.855H414.02V566ZM448.191 566.527C453.184 566.527 456.98 564.348 459.16 560.586H459.406V566H471.852V539.879C471.852 532.109 465.066 526.906 454.766 526.906C444.113 526.906 437.75 532.004 437.152 539.457L437.117 539.914H448.332L448.402 539.562C448.824 537.594 450.793 536.047 454.133 536.047C457.613 536.047 459.406 537.77 459.406 540.547V542.445L450.688 543.008C440.809 543.676 435.254 547.719 435.254 554.926V554.961C435.254 561.641 440.492 566.527 448.191 566.527ZM447.488 554.152V554.117C447.488 551.832 449.211 550.391 452.691 550.18L459.406 549.723V552.289C459.406 555.523 456.559 557.914 452.551 557.914C449.492 557.914 447.488 556.543 447.488 554.152ZM492.664 566H526.555V555.629H505.566V515.27H492.664V566ZM538.332 566H551.199V525.641H565.191V515.27H524.34V525.641H538.332V566ZM570.641 566H591.242C606.535 566 615.57 556.543 615.57 540.336V540.266C615.57 524.129 606.535 515.27 591.242 515.27H570.641V566ZM583.543 555.594V525.676H589.555C597.676 525.676 602.457 530.809 602.457 540.301V540.371C602.457 550.496 597.957 555.594 589.555 555.594H583.543Z" fill="#FE0000"/>
<defs>
<linearGradient id="paint0_linear" x1="414.745" y1="766.101" x2="388.46" y2="733.327" gradientUnits="userSpaceOnUse">
<stop stop-opacity="0"/>
<stop offset="0.95"/>
</linearGradient>
<linearGradient id="paint1_linear" x1="8203.9" y1="6497.65" x2="8638.74" y2="6497.65" gradientUnits="userSpaceOnUse">
<stop stop-opacity="0"/>
<stop offset="0.95"/>
</linearGradient>
<linearGradient id="paint2_linear" x1="459.415" y1="710.904" x2="424.845" y2="669.061" gradientUnits="userSpaceOnUse">
<stop offset="0.02" stop-color="#E60303"/>
<stop offset="0.32" stop-color="#FD0101"/>
<stop offset="0.68" stop-color="#F08181"/>
<stop offset="1" stop-color="#FB7474"/>
</linearGradient>
<linearGradient id="paint3_linear" x1="18688.7" y1="7701.97" x2="18062" y2="9486.53" gradientUnits="userSpaceOnUse">
<stop offset="0.02" stop-color="white" stop-opacity="0"/>
<stop offset="0.32" stop-color="white" stop-opacity="0.39"/>
<stop offset="0.68" stop-color="white" stop-opacity="0.68"/>
<stop offset="1" stop-color="white"/>
</linearGradient>
<linearGradient id="paint4_linear" x1="24166.3" y1="77972.6" x2="99193" y2="77972.6" gradientUnits="userSpaceOnUse">
<stop offset="0.02" stop-color="white" stop-opacity="0"/>
<stop offset="0.32" stop-color="white" stop-opacity="0.39"/>
<stop offset="0.68" stop-color="white" stop-opacity="0.68"/>
<stop offset="1" stop-color="white"/>
</linearGradient>
<linearGradient id="paint5_linear" x1="42088.9" y1="94746.7" x2="7925.65" y2="58145.6" gradientUnits="userSpaceOnUse">
<stop offset="0.02" stop-color="#FDCC4E"/>
<stop offset="0.32" stop-color="white" stop-opacity="0.39"/>
<stop offset="0.68" stop-color="white" stop-opacity="0.68"/>
<stop offset="1" stop-color="#FDCC4E"/>
</linearGradient>
<linearGradient id="paint6_linear" x1="7473.8" y1="3257.77" x2="7336.95" y2="2739.37" gradientUnits="userSpaceOnUse">
<stop offset="0.02" stop-color="#33A96A"/>
<stop offset="0.32" stop-color="white" stop-opacity="0.39"/>
<stop offset="0.68" stop-color="white" stop-opacity="0.68"/>
<stop offset="1" stop-color="white"/>
</linearGradient>
<linearGradient id="paint7_linear" x1="474" y1="673" x2="486" y2="687" gradientUnits="userSpaceOnUse">
<stop stop-color="#484848"/>
<stop offset="0.9999"/>
<stop offset="1" stop-opacity="0"/>
</linearGradient>
<linearGradient id="paint8_linear" x1="134.08" y1="798.172" x2="222.151" y2="706.485" gradientUnits="userSpaceOnUse">
<stop offset="0.02" stop-color="white" stop-opacity="0"/>
<stop offset="0.32" stop-color="white" stop-opacity="0.39"/>
<stop offset="0.66" stop-color="white"/>
<stop offset="1" stop-color="white"/>
</linearGradient>
<linearGradient id="paint9_linear" x1="12164.4" y1="5433.37" x2="12227.3" y2="6072.34" gradientUnits="userSpaceOnUse">
<stop offset="0.01"/>
<stop offset="0.13" stop-opacity="0.69"/>
<stop offset="0.25" stop-opacity="0.32"/>
<stop offset="1" stop-opacity="0"/>
</linearGradient>
<linearGradient id="paint10_linear" x1="16280.7" y1="9922.96" x2="16306.7" y2="9423.39" gradientUnits="userSpaceOnUse">
<stop offset="0.01"/>
<stop offset="0.13" stop-opacity="0.69"/>
<stop offset="0.25" stop-opacity="0.32"/>
<stop offset="1" stop-opacity="0"/>
</linearGradient>
<clipPath id="clip0">
<rect width="740" height="558" fill="white" transform="translate(16 534)"/>
</clipPath>
<clipPath id="clip1">
<rect width="550" height="414" fill="white" transform="translate(111)"/>
</clipPath>
</defs>
</svg>
