<svg width="366" height="234" viewBox="0 0 366 234" fill="none" xmlns="http://www.w3.org/2000/svg">
<path d="M93.0928 231.134C94.9673 231.134 96.3262 229.958 96.4766 228.309L96.4819 228.25H94.9028L94.8921 228.304C94.6826 229.222 94.0273 229.759 93.0928 229.759C91.8521 229.759 91.0571 228.75 91.0571 227.117V227.111C91.0571 225.489 91.8521 224.49 93.0928 224.49C94.0596 224.49 94.6934 225.049 94.876 225.903L94.8975 225.994H96.4766L96.4712 225.946C96.3208 224.302 94.9727 223.115 93.0928 223.115C90.8315 223.115 89.4028 224.619 89.4028 227.117V227.122C89.4028 229.62 90.8262 231.134 93.0928 231.134ZM102.523 231.134C104.827 231.134 106.261 229.593 106.261 227.127V227.117C106.261 224.657 104.822 223.115 102.523 223.115C100.229 223.115 98.7846 224.651 98.7846 227.117V227.127C98.7846 229.593 100.219 231.134 102.523 231.134ZM102.523 229.759C101.25 229.759 100.439 228.75 100.439 227.127V227.117C100.439 225.495 101.255 224.49 102.523 224.49C103.796 224.49 104.607 225.5 104.607 227.117V227.127C104.607 228.733 103.812 229.759 102.523 229.759ZM108.849 231H110.465V225.924H110.497L114.01 231H115.417V223.25H113.801V228.288H113.768L110.267 223.25H108.849V231ZM120.105 231H121.727V224.587H123.972V223.25H117.865V224.587H120.105V231ZM126.409 231H128.031V223.25H126.409V231ZM130.86 231H132.477V225.924H132.509L136.022 231H137.429V223.25H135.812V228.288H135.78L132.278 223.25H130.86V231ZM143.513 231.134C145.511 231.134 146.757 229.979 146.757 228.261V223.25H145.135V228.116C145.135 229.12 144.555 229.759 143.513 229.759C142.471 229.759 141.886 229.12 141.886 228.116V223.25H140.263V228.261C140.263 229.985 141.526 231.134 143.513 231.134ZM149.592 231H154.726V229.663H151.214V227.713H154.528V226.445H151.214V224.587H154.726V223.25H149.592V231Z" fill="#FBFBFB"/>
<path opacity="0.4" d="M2.93945 204H4.6416L6.63086 196.925H6.67188L8.66113 204H10.3633L13.0088 194.136H11.1768L9.46094 201.58H9.42676L7.45117 194.136H5.85156L3.87598 201.58H3.8418L2.12598 194.136H0.293945L2.93945 204ZM16.3926 204.144C18.2861 204.144 19.3525 203.022 19.5781 201.908L19.5986 201.833H18.0059L17.9922 201.881C17.8281 202.366 17.2744 202.817 16.4268 202.817C15.3193 202.817 14.6221 202.065 14.5947 200.794H19.667V200.247C19.667 198.06 18.3818 196.604 16.3105 196.604C14.2393 196.604 12.9062 198.107 12.9062 200.391V200.397C12.9062 202.701 14.2188 204.144 16.3926 204.144ZM16.3311 197.937C17.2334 197.937 17.8896 198.511 18.0127 199.659H14.6152C14.752 198.545 15.4287 197.937 16.3311 197.937ZM23.6182 204H25.3203V199.823C25.3203 198.771 25.9492 198.039 26.9131 198.039C27.8906 198.039 28.4512 198.709 28.4512 199.823V204H30.1533V199.488C30.1533 197.738 29.1553 196.604 27.5967 196.604C26.5098 196.604 25.7373 197.103 25.3613 197.971H25.3203V194.136H23.6182V204ZM33.667 204.123C34.624 204.123 35.4307 203.645 35.8477 202.886H35.8887V204H37.5908V199.017C37.5908 197.561 36.4219 196.604 34.6104 196.604C32.7715 196.604 31.6572 197.567 31.5547 198.853L31.5479 198.935H33.127L33.1406 198.873C33.25 198.34 33.7422 197.964 34.5488 197.964C35.4102 197.964 35.8887 198.408 35.8887 199.14V199.639L33.9951 199.755C32.2383 199.864 31.2402 200.637 31.2402 201.922V201.936C31.2402 203.228 32.2178 204.123 33.667 204.123ZM32.9355 201.867V201.86C32.9355 201.286 33.3936 200.924 34.2344 200.869L35.8887 200.767V201.313C35.8887 202.175 35.1504 202.824 34.1729 202.824C33.4277 202.824 32.9355 202.462 32.9355 201.867ZM40.8926 204H42.7656L45.3154 196.754H43.5381L41.8633 202.421H41.8223L40.1406 196.754H38.3291L40.8926 204ZM49.0273 204.144C50.9209 204.144 51.9873 203.022 52.2129 201.908L52.2334 201.833H50.6406L50.627 201.881C50.4629 202.366 49.9092 202.817 49.0615 202.817C47.9541 202.817 47.2568 202.065 47.2295 200.794H52.3018V200.247C52.3018 198.06 51.0166 196.604 48.9453 196.604C46.874 196.604 45.541 198.107 45.541 200.391V200.397C45.541 202.701 46.8535 204.144 49.0273 204.144ZM48.9658 197.937C49.8682 197.937 50.5244 198.511 50.6475 199.659H47.25C47.3867 198.545 48.0635 197.937 48.9658 197.937ZM59.0352 204.144C60.8125 204.144 62.0771 203.228 62.0771 201.86V201.854C62.0771 200.801 61.4961 200.213 59.999 199.878L58.7891 199.611C58.0371 199.44 57.7568 199.167 57.7568 198.75V198.743C57.7568 198.21 58.2285 197.861 58.9805 197.861C59.7734 197.861 60.2383 198.285 60.3135 198.866L60.3203 198.921H61.9062L61.8994 198.846C61.8379 197.595 60.7852 196.604 58.9805 196.604C57.2305 196.604 56.0752 197.499 56.0752 198.825V198.832C56.0752 199.905 56.7725 200.582 58.1602 200.89L59.3633 201.156C60.1152 201.327 60.3682 201.573 60.3682 202.011V202.018C60.3682 202.551 59.8691 202.886 59.042 202.886C58.1807 202.886 57.709 202.517 57.5791 201.895L57.5654 201.833H55.8906L55.8975 201.895C56.0479 203.241 57.1348 204.144 59.0352 204.144ZM66.3496 204.144C68.2432 204.144 69.3096 203.022 69.5352 201.908L69.5557 201.833H67.9629L67.9492 201.881C67.7852 202.366 67.2314 202.817 66.3838 202.817C65.2764 202.817 64.5791 202.065 64.5518 200.794H69.624V200.247C69.624 198.06 68.3389 196.604 66.2676 196.604C64.1963 196.604 62.8633 198.107 62.8633 200.391V200.397C62.8633 202.701 64.1758 204.144 66.3496 204.144ZM66.2881 197.937C67.1904 197.937 67.8467 198.511 67.9697 199.659H64.5723C64.709 198.545 65.3857 197.937 66.2881 197.937ZM70.7246 204H72.4268V199.796C72.4268 198.75 73.0488 198.039 74.0264 198.039C74.9971 198.039 75.4756 198.62 75.4756 199.652V204H77.1777V199.311C77.1777 197.629 76.2686 196.604 74.6758 196.604C73.5752 196.604 72.8369 197.109 72.4609 197.889H72.4268V196.754H70.7246V204ZM81.2383 204.144C81.5801 204.144 81.8809 204.109 82.0791 204.082V202.804C81.9629 202.811 81.833 202.831 81.6689 202.831C81.0469 202.831 80.7324 202.605 80.7324 201.895V198.066H82.0791V196.754H80.7324V194.915H79.0029V196.754H77.9775V198.066H79.0029V202.038C79.0029 203.528 79.7207 204.144 81.2383 204.144ZM88.1904 204.123C89.1475 204.123 89.9541 203.645 90.3711 202.886H90.4121V204H92.1143V199.017C92.1143 197.561 90.9453 196.604 89.1338 196.604C87.2949 196.604 86.1807 197.567 86.0781 198.853L86.0713 198.935H87.6504L87.6641 198.873C87.7734 198.34 88.2656 197.964 89.0723 197.964C89.9336 197.964 90.4121 198.408 90.4121 199.14V199.639L88.5186 199.755C86.7617 199.864 85.7637 200.637 85.7637 201.922V201.936C85.7637 203.228 86.7412 204.123 88.1904 204.123ZM87.459 201.867V201.86C87.459 201.286 87.917 200.924 88.7578 200.869L90.4121 200.767V201.313C90.4121 202.175 89.6738 202.824 88.6963 202.824C87.9512 202.824 87.459 202.462 87.459 201.867ZM96.291 206.393H97.9932V202.776H98.0273C98.4375 203.624 99.2646 204.144 100.297 204.144C102.115 204.144 103.277 202.708 103.277 200.384V200.377C103.277 198.039 102.115 196.604 100.276 196.604C99.2373 196.604 98.4443 197.137 98.0273 198.005H97.9932V196.754H96.291V206.393ZM99.7705 202.708C98.7178 202.708 97.9795 201.799 97.9795 200.384V200.377C97.9795 198.955 98.7178 198.039 99.7705 198.039C100.857 198.039 101.541 198.928 101.541 200.377V200.384C101.541 201.812 100.857 202.708 99.7705 202.708ZM106.511 204.123C107.468 204.123 108.274 203.645 108.691 202.886H108.732V204H110.435V199.017C110.435 197.561 109.266 196.604 107.454 196.604C105.615 196.604 104.501 197.567 104.398 198.853L104.392 198.935H105.971L105.984 198.873C106.094 198.34 106.586 197.964 107.393 197.964C108.254 197.964 108.732 198.408 108.732 199.14V199.639L106.839 199.755C105.082 199.864 104.084 200.637 104.084 201.922V201.936C104.084 203.228 105.062 204.123 106.511 204.123ZM105.779 201.867V201.86C105.779 201.286 106.237 200.924 107.078 200.869L108.732 200.767V201.313C108.732 202.175 107.994 202.824 107.017 202.824C106.271 202.824 105.779 202.462 105.779 201.867ZM114.639 204.144C116.416 204.144 117.681 203.228 117.681 201.86V201.854C117.681 200.801 117.1 200.213 115.603 199.878L114.393 199.611C113.641 199.44 113.36 199.167 113.36 198.75V198.743C113.36 198.21 113.832 197.861 114.584 197.861C115.377 197.861 115.842 198.285 115.917 198.866L115.924 198.921H117.51L117.503 198.846C117.441 197.595 116.389 196.604 114.584 196.604C112.834 196.604 111.679 197.499 111.679 198.825V198.832C111.679 199.905 112.376 200.582 113.764 200.89L114.967 201.156C115.719 201.327 115.972 201.573 115.972 202.011V202.018C115.972 202.551 115.473 202.886 114.646 202.886C113.784 202.886 113.312 202.517 113.183 201.895L113.169 201.833H111.494L111.501 201.895C111.651 203.241 112.738 204.144 114.639 204.144ZM121.598 204.144C123.375 204.144 124.64 203.228 124.64 201.86V201.854C124.64 200.801 124.059 200.213 122.562 199.878L121.352 199.611C120.6 199.44 120.319 199.167 120.319 198.75V198.743C120.319 198.21 120.791 197.861 121.543 197.861C122.336 197.861 122.801 198.285 122.876 198.866L122.883 198.921H124.469L124.462 198.846C124.4 197.595 123.348 196.604 121.543 196.604C119.793 196.604 118.638 197.499 118.638 198.825V198.832C118.638 199.905 119.335 200.582 120.723 200.89L121.926 201.156C122.678 201.327 122.931 201.573 122.931 202.011V202.018C122.931 202.551 122.432 202.886 121.604 202.886C120.743 202.886 120.271 202.517 120.142 201.895L120.128 201.833H118.453L118.46 201.895C118.61 203.241 119.697 204.144 121.598 204.144ZM127.114 204H128.892L130.313 198.702H130.348L131.776 204H133.567L135.529 196.754H133.848L132.624 202.318H132.583L131.168 196.754H129.534L128.119 202.318H128.085L126.861 196.754H125.152L127.114 204ZM139.515 204.144C141.641 204.144 143.021 202.729 143.021 200.377V200.363C143.021 198.025 141.62 196.604 139.508 196.604C137.402 196.604 136.008 198.039 136.008 200.363V200.377C136.008 202.722 137.382 204.144 139.515 204.144ZM139.521 202.77C138.435 202.77 137.744 201.901 137.744 200.377V200.363C137.744 198.859 138.448 197.984 139.508 197.984C140.588 197.984 141.285 198.853 141.285 200.363V200.377C141.285 201.895 140.595 202.77 139.521 202.77ZM144.115 204H145.817V199.755C145.817 198.736 146.398 198.114 147.362 198.114C147.649 198.114 147.909 198.155 148.053 198.21V196.672C147.923 196.638 147.725 196.604 147.513 196.604C146.658 196.604 146.022 197.116 145.804 197.964H145.77V196.754H144.115V204ZM151.348 204.144C152.394 204.144 153.193 203.624 153.604 202.77H153.645V204H155.347V194.136H153.645V197.998H153.604C153.193 197.13 152.366 196.604 151.341 196.604C149.522 196.604 148.354 198.032 148.354 200.37V200.377C148.354 202.708 149.516 204.144 151.348 204.144ZM151.86 202.708C150.767 202.708 150.09 201.819 150.09 200.377V200.37C150.09 198.928 150.773 198.039 151.86 198.039C152.906 198.039 153.645 198.955 153.645 200.37V200.377C153.645 201.799 152.913 202.708 151.86 202.708ZM159.578 204H161.28V199.755C161.28 198.736 161.861 198.114 162.825 198.114C163.112 198.114 163.372 198.155 163.516 198.21V196.672C163.386 196.638 163.188 196.604 162.976 196.604C162.121 196.604 161.485 197.116 161.267 197.964H161.232V196.754H159.578V204ZM167.303 204.144C169.196 204.144 170.263 203.022 170.488 201.908L170.509 201.833H168.916L168.902 201.881C168.738 202.366 168.185 202.817 167.337 202.817C166.229 202.817 165.532 202.065 165.505 200.794H170.577V200.247C170.577 198.06 169.292 196.604 167.221 196.604C165.149 196.604 163.816 198.107 163.816 200.391V200.397C163.816 202.701 165.129 204.144 167.303 204.144ZM167.241 197.937C168.144 197.937 168.8 198.511 168.923 199.659H165.525C165.662 198.545 166.339 197.937 167.241 197.937ZM174.877 204.144C176.709 204.144 177.933 202.995 178.062 201.484L178.069 201.437H176.463L176.449 201.498C176.292 202.257 175.745 202.77 174.884 202.77C173.811 202.77 173.113 201.895 173.113 200.384V200.377C173.113 198.894 173.804 197.984 174.877 197.984C175.779 197.984 176.299 198.552 176.442 199.256L176.456 199.317H178.062L178.056 199.263C177.953 197.813 176.764 196.604 174.856 196.604C172.744 196.604 171.377 198.053 171.377 200.363V200.37C171.377 202.694 172.724 204.144 174.877 204.144ZM182.294 204.144C184.42 204.144 185.801 202.729 185.801 200.377V200.363C185.801 198.025 184.399 196.604 182.287 196.604C180.182 196.604 178.787 198.039 178.787 200.363V200.377C178.787 202.722 180.161 204.144 182.294 204.144ZM182.301 202.77C181.214 202.77 180.523 201.901 180.523 200.377V200.363C180.523 198.859 181.228 197.984 182.287 197.984C183.367 197.984 184.064 198.853 184.064 200.363V200.377C184.064 201.895 183.374 202.77 182.301 202.77ZM188.59 204H190.463L193.013 196.754H191.235L189.561 202.421H189.52L187.838 196.754H186.026L188.59 204ZM196.725 204.144C198.618 204.144 199.685 203.022 199.91 201.908L199.931 201.833H198.338L198.324 201.881C198.16 202.366 197.606 202.817 196.759 202.817C195.651 202.817 194.954 202.065 194.927 200.794H199.999V200.247C199.999 198.06 198.714 196.604 196.643 196.604C194.571 196.604 193.238 198.107 193.238 200.391V200.397C193.238 202.701 194.551 204.144 196.725 204.144ZM196.663 197.937C197.565 197.937 198.222 198.511 198.345 199.659H194.947C195.084 198.545 195.761 197.937 196.663 197.937ZM201.1 204H202.802V199.755C202.802 198.736 203.383 198.114 204.347 198.114C204.634 198.114 204.894 198.155 205.037 198.21V196.672C204.907 196.638 204.709 196.604 204.497 196.604C203.643 196.604 203.007 197.116 202.788 197.964H202.754V196.754H201.1V204ZM209.617 195.715C210.15 195.715 210.561 195.291 210.561 194.785C210.561 194.266 210.15 193.849 209.617 193.849C209.084 193.849 208.667 194.266 208.667 194.785C208.667 195.291 209.084 195.715 209.617 195.715ZM208.763 204H210.465V196.754H208.763V204ZM211.914 204H213.616V199.796C213.616 198.75 214.238 198.039 215.216 198.039C216.187 198.039 216.665 198.62 216.665 199.652V204H218.367V199.311C218.367 197.629 217.458 196.604 215.865 196.604C214.765 196.604 214.026 197.109 213.65 197.889H213.616V196.754H211.914V204ZM222.564 204.144C224.342 204.144 225.606 203.228 225.606 201.86V201.854C225.606 200.801 225.025 200.213 223.528 199.878L222.318 199.611C221.566 199.44 221.286 199.167 221.286 198.75V198.743C221.286 198.21 221.758 197.861 222.51 197.861C223.303 197.861 223.768 198.285 223.843 198.866L223.85 198.921H225.436L225.429 198.846C225.367 197.595 224.314 196.604 222.51 196.604C220.76 196.604 219.604 197.499 219.604 198.825V198.832C219.604 199.905 220.302 200.582 221.689 200.89L222.893 201.156C223.645 201.327 223.897 201.573 223.897 202.011V202.018C223.897 202.551 223.398 202.886 222.571 202.886C221.71 202.886 221.238 202.517 221.108 201.895L221.095 201.833H219.42L219.427 201.895C219.577 203.241 220.664 204.144 222.564 204.144ZM229.387 204.144C229.729 204.144 230.029 204.109 230.228 204.082V202.804C230.111 202.811 229.981 202.831 229.817 202.831C229.195 202.831 228.881 202.605 228.881 201.895V198.066H230.228V196.754H228.881V194.915H227.151V196.754H226.126V198.066H227.151V202.038C227.151 203.528 227.869 204.144 229.387 204.144ZM231.396 204H233.099V199.755C233.099 198.736 233.68 198.114 234.644 198.114C234.931 198.114 235.19 198.155 235.334 198.21V196.672C235.204 196.638 235.006 196.604 234.794 196.604C233.939 196.604 233.304 197.116 233.085 197.964H233.051V196.754H231.396V204ZM238.677 204.144C239.771 204.144 240.516 203.638 240.892 202.865H240.926V204H242.628V196.754H240.926V200.951C240.926 202.004 240.304 202.708 239.326 202.708C238.355 202.708 237.877 202.127 237.877 201.102V196.754H236.175V201.437C236.175 203.118 237.084 204.144 238.677 204.144ZM247.229 204.144C249.061 204.144 250.284 202.995 250.414 201.484L250.421 201.437H248.814L248.801 201.498C248.644 202.257 248.097 202.77 247.235 202.77C246.162 202.77 245.465 201.895 245.465 200.384V200.377C245.465 198.894 246.155 197.984 247.229 197.984C248.131 197.984 248.65 198.552 248.794 199.256L248.808 199.317H250.414L250.407 199.263C250.305 197.813 249.115 196.604 247.208 196.604C245.096 196.604 243.729 198.053 243.729 200.363V200.37C243.729 202.694 245.075 204.144 247.229 204.144ZM254.133 204.144C254.475 204.144 254.775 204.109 254.974 204.082V202.804C254.857 202.811 254.728 202.831 254.563 202.831C253.941 202.831 253.627 202.605 253.627 201.895V198.066H254.974V196.754H253.627V194.915H251.897V196.754H250.872V198.066H251.897V202.038C251.897 203.528 252.615 204.144 254.133 204.144ZM257.045 195.715C257.578 195.715 257.988 195.291 257.988 194.785C257.988 194.266 257.578 193.849 257.045 193.849C256.512 193.849 256.095 194.266 256.095 194.785C256.095 195.291 256.512 195.715 257.045 195.715ZM256.19 204H257.893V196.754H256.19V204ZM262.548 204.144C264.674 204.144 266.055 202.729 266.055 200.377V200.363C266.055 198.025 264.653 196.604 262.541 196.604C260.436 196.604 259.041 198.039 259.041 200.363V200.377C259.041 202.722 260.415 204.144 262.548 204.144ZM262.555 202.77C261.468 202.77 260.777 201.901 260.777 200.377V200.363C260.777 198.859 261.481 197.984 262.541 197.984C263.621 197.984 264.318 198.853 264.318 200.363V200.377C264.318 201.895 263.628 202.77 262.555 202.77ZM267.148 204H268.851V199.796C268.851 198.75 269.473 198.039 270.45 198.039C271.421 198.039 271.899 198.62 271.899 199.652V204H273.602V199.311C273.602 197.629 272.692 196.604 271.1 196.604C269.999 196.604 269.261 197.109 268.885 197.889H268.851V196.754H267.148V204ZM277.799 204.144C279.576 204.144 280.841 203.228 280.841 201.86V201.854C280.841 200.801 280.26 200.213 278.763 199.878L277.553 199.611C276.801 199.44 276.521 199.167 276.521 198.75V198.743C276.521 198.21 276.992 197.861 277.744 197.861C278.537 197.861 279.002 198.285 279.077 198.866L279.084 198.921H280.67L280.663 198.846C280.602 197.595 279.549 196.604 277.744 196.604C275.994 196.604 274.839 197.499 274.839 198.825V198.832C274.839 199.905 275.536 200.582 276.924 200.89L278.127 201.156C278.879 201.327 279.132 201.573 279.132 202.011V202.018C279.132 202.551 278.633 202.886 277.806 202.886C276.944 202.886 276.473 202.517 276.343 201.895L276.329 201.833H274.654L274.661 201.895C274.812 203.241 275.898 204.144 277.799 204.144ZM287.424 204.144C287.766 204.144 288.066 204.109 288.265 204.082V202.804C288.148 202.811 288.019 202.831 287.854 202.831C287.232 202.831 286.918 202.605 286.918 201.895V198.066H288.265V196.754H286.918V194.915H285.188V196.754H284.163V198.066H285.188V202.038C285.188 203.528 285.906 204.144 287.424 204.144ZM292.503 204.144C294.629 204.144 296.01 202.729 296.01 200.377V200.363C296.01 198.025 294.608 196.604 292.496 196.604C290.391 196.604 288.996 198.039 288.996 200.363V200.377C288.996 202.722 290.37 204.144 292.503 204.144ZM292.51 202.77C291.423 202.77 290.732 201.901 290.732 200.377V200.363C290.732 198.859 291.437 197.984 292.496 197.984C293.576 197.984 294.273 198.853 294.273 200.363V200.377C294.273 201.895 293.583 202.77 292.51 202.77ZM300.877 206.406C302.388 206.406 303.235 205.839 303.789 204.246L306.394 196.754H304.603L302.9 202.551H302.853L301.157 196.754H299.298L301.902 204.007L301.8 204.301C301.581 204.909 301.219 205.094 300.569 205.094C300.33 205.094 300.132 205.06 300.002 205.032V206.331C300.207 206.365 300.549 206.406 300.877 206.406ZM310.126 204.144C312.252 204.144 313.633 202.729 313.633 200.377V200.363C313.633 198.025 312.231 196.604 310.119 196.604C308.014 196.604 306.619 198.039 306.619 200.363V200.377C306.619 202.722 307.993 204.144 310.126 204.144ZM310.133 202.77C309.046 202.77 308.355 201.901 308.355 200.377V200.363C308.355 198.859 309.06 197.984 310.119 197.984C311.199 197.984 311.896 198.853 311.896 200.363V200.377C311.896 201.895 311.206 202.77 310.133 202.77ZM317.194 204.144C318.288 204.144 319.033 203.638 319.409 202.865H319.443V204H321.146V196.754H319.443V200.951C319.443 202.004 318.821 202.708 317.844 202.708C316.873 202.708 316.395 202.127 316.395 201.102V196.754H314.692V201.437C314.692 203.118 315.602 204.144 317.194 204.144ZM322.547 204H324.249V199.755C324.249 198.736 324.83 198.114 325.794 198.114C326.081 198.114 326.341 198.155 326.484 198.21V196.672C326.354 196.638 326.156 196.604 325.944 196.604C325.09 196.604 324.454 197.116 324.235 197.964H324.201V196.754H322.547V204ZM333.348 204.144C335.241 204.144 336.308 203.022 336.533 201.908L336.554 201.833H334.961L334.947 201.881C334.783 202.366 334.229 202.817 333.382 202.817C332.274 202.817 331.577 202.065 331.55 200.794H336.622V200.247C336.622 198.06 335.337 196.604 333.266 196.604C331.194 196.604 329.861 198.107 329.861 200.391V200.397C329.861 202.701 331.174 204.144 333.348 204.144ZM333.286 197.937C334.188 197.937 334.845 198.511 334.968 199.659H331.57C331.707 198.545 332.384 197.937 333.286 197.937ZM337.723 204H339.425V199.563C339.425 198.682 339.999 198.039 340.819 198.039C341.612 198.039 342.104 198.545 342.104 199.358V204H343.759V199.522C343.759 198.647 344.319 198.039 345.14 198.039C345.974 198.039 346.438 198.552 346.438 199.447V204H348.141V199.023C348.141 197.574 347.204 196.604 345.775 196.604C344.729 196.604 343.868 197.164 343.52 198.066H343.479C343.212 197.137 342.48 196.604 341.469 196.604C340.512 196.604 339.767 197.123 339.459 197.916H339.425V196.754H337.723V204ZM351.647 204.123C352.604 204.123 353.411 203.645 353.828 202.886H353.869V204H355.571V199.017C355.571 197.561 354.402 196.604 352.591 196.604C350.752 196.604 349.638 197.567 349.535 198.853L349.528 198.935H351.107L351.121 198.873C351.23 198.34 351.723 197.964 352.529 197.964C353.391 197.964 353.869 198.408 353.869 199.14V199.639L351.976 199.755C350.219 199.864 349.221 200.637 349.221 201.922V201.936C349.221 203.228 350.198 204.123 351.647 204.123ZM350.916 201.867V201.86C350.916 201.286 351.374 200.924 352.215 200.869L353.869 200.767V201.313C353.869 202.175 353.131 202.824 352.153 202.824C351.408 202.824 350.916 202.462 350.916 201.867ZM357.848 195.715C358.381 195.715 358.791 195.291 358.791 194.785C358.791 194.266 358.381 193.849 357.848 193.849C357.314 193.849 356.897 194.266 356.897 194.785C356.897 195.291 357.314 195.715 357.848 195.715ZM356.993 204H358.695V196.754H356.993V204ZM360.192 204H361.895V194.136H360.192V204ZM364.267 204.109C364.82 204.109 365.251 203.672 365.251 203.118C365.251 202.571 364.82 202.134 364.267 202.134C363.713 202.134 363.275 202.571 363.275 203.118C363.275 203.672 363.713 204.109 364.267 204.109Z" fill="black"/>
<path d="M284.643 110.897L272.57 119.41L218.966 157.031C214.849 159.994 210.562 162.714 206.126 165.175C202.511 167.126 200.445 170.85 196.07 171.844C193.898 172.221 191.673 172.182 189.515 171.73C185.986 171.156 182.515 170.276 179.139 169.098C178.728 168.956 178.138 168.871 177.953 169.268C177.769 169.666 178.763 169.623 178.415 169.354C146.99 165.097 116.964 153.746 85.8227 147.787C85.4609 147.72 85.1307 147.538 84.8818 147.267C84.6329 146.996 84.4788 146.652 84.4427 146.286C84.4067 145.92 84.4906 145.553 84.6819 145.239C84.8731 144.925 85.1614 144.681 85.5032 144.545C88.0101 143.524 90.7442 143.126 93.5068 142.587C98.478 141.672 103.378 140.778 108.335 139.969C118.326 138.241 128.412 137.122 138.539 136.621C155.356 135.912 172.329 137.706 188.961 135.103C204.762 132.634 219.634 126.327 234.334 120.013C237.885 118.495 241.5 116.92 244.277 114.253C246.457 112.16 248.204 109.401 250.981 108.024C253.864 106.605 257.372 106.854 260.468 106.996C268.635 107.357 276.703 109.017 284.643 110.897Z" fill="url(#paint0_linear)"/>
<path d="M87.1863 137.224L157.38 106.719C158.9 105.957 160.616 105.672 162.301 105.903L249.12 113.274C250.782 113.508 250.483 120.645 249.12 121.787L197.845 165.388C196.301 166.75 194.452 167.722 192.454 168.223C190.456 168.724 188.367 168.74 186.362 168.268L87.8041 144.325C86.5471 144.02 86.0074 137.806 87.1863 137.224Z" fill="#33A96A"/>
<path d="M87.1863 137.224L157.38 106.719C158.9 105.957 160.616 105.672 162.301 105.903L249.12 113.274C250.782 113.508 250.483 120.645 249.12 121.787L197.845 165.388C196.301 166.75 194.452 167.722 192.454 168.223C190.456 168.724 188.367 168.74 186.362 168.268L87.8041 144.325C86.5471 144.02 86.0074 137.806 87.1863 137.224Z" fill="url(#paint1_linear)"/>
<path d="M249.141 116.729L197.867 160.33C196.324 161.694 194.475 162.668 192.477 163.17C190.479 163.673 188.389 163.689 186.383 163.217L87.8043 139.267C86.5473 138.962 86.384 136.976 87.5557 136.387L114.571 121.156L121.672 117.169L143.269 105.045C144.789 104.282 146.505 103.998 148.19 104.229L248.268 112.926C249.93 113.125 250.484 115.587 249.141 116.729Z" fill="#33A96A"/>
<path d="M148.183 106.605L239.66 120.12L211.502 142.963L117.624 123.986L148.183 106.605Z" fill="url(#paint2_linear)"/>
<path d="M240.768 122.589C240.498 123.404 239.611 123.823 238.808 124.142C232.958 126.335 226.993 128.21 220.94 129.761C215.195 131.343 209.201 132.939 203.335 131.889C202.599 131.698 201.835 131.635 201.077 131.705C199.827 131.932 198.904 132.946 197.931 133.748C193.08 137.735 185.993 136.827 179.814 135.706C180.081 133.671 180.214 131.621 180.212 129.569C163.686 129.866 147.166 128.741 130.834 126.207C127.283 125.66 117.688 125.228 115.267 122.284C114.967 121.959 114.727 121.584 114.556 121.177L121.658 117.19C121.98 117.204 122.299 117.254 122.61 117.339C141.506 122.573 161.146 124.612 180.716 123.369C181.22 120.822 178.586 117.637 180.588 115.948C181.248 115.48 182.046 115.248 182.854 115.289C185.852 115.172 188.833 115.796 191.532 117.105C193.13 117.885 194.635 118.907 196.361 119.347C198.05 119.681 199.782 119.736 201.489 119.51C212.384 118.695 223.316 118.487 234.235 118.885C236.031 118.949 237.913 119.056 239.44 119.999C240.335 120.538 241.109 121.588 240.768 122.589Z" fill="url(#paint3_linear)"/>
<path d="M138.61 129.647L176.306 137.26L156.812 153.143L117.624 144.361L138.61 129.647Z" fill="url(#paint4_linear)"/>
<path d="M119.762 147.113C120.147 147.887 120.693 148.569 121.363 149.116C122.033 149.663 122.811 150.061 123.647 150.284C126.416 150.951 142.559 155.08 142.559 155.08C142.559 155.08 145.186 155.392 146.642 153.661L119.762 147.113Z" fill="url(#paint5_linear)"/>
<path d="M145.314 104.186L248.559 118.864C249.316 118.97 250.084 118.782 250.707 118.34C251.33 117.899 251.761 117.236 251.911 116.488L266.64 42.1901C266.798 41.3972 266.786 40.5799 266.607 39.7917C266.427 39.0034 266.083 38.2618 265.597 37.6152C265.112 36.9686 264.495 36.4315 263.787 36.039C263.08 35.6465 262.297 35.4073 261.491 35.3371L159.532 26.4055C158.031 26.2742 156.539 26.7354 155.374 27.6902C154.21 28.645 153.467 30.0174 153.303 31.5133L145.314 104.186Z" fill="#33A96A"/>
<path d="M145.314 104.186L248.289 118.822C249.121 118.939 249.966 118.734 250.652 118.249C251.337 117.763 251.811 117.034 251.975 116.211L266.64 42.1901C266.798 41.3972 266.786 40.5799 266.607 39.7917C266.427 39.0034 266.083 38.2618 265.597 37.6152C265.112 36.9686 264.495 36.4315 263.787 36.039C263.08 35.6465 262.297 35.4073 261.491 35.3371L159.532 26.4055C158.031 26.2742 156.539 26.7354 155.374 27.6902C154.21 28.645 153.467 30.0174 153.303 31.5133L145.314 104.186Z" fill="url(#paint6_linear)"/>
<path d="M246.691 114.594L261.356 39.6292L157.38 30.0378L149.114 101.015L246.691 114.594Z" fill="white"/>
<path d="M238.141 53.2571L165.213 45.6734L166.868 36.4509L239.817 44.0346C240.433 44.0746 241.034 44.2434 241.581 44.5303C242.128 44.8171 242.609 45.2156 242.992 45.6998C243.375 46.184 243.652 46.7432 243.805 47.3412C243.957 47.9391 243.983 48.5625 243.879 49.1708C243.599 50.441 242.857 51.5622 241.797 52.3171C240.737 53.072 239.434 53.407 238.141 53.2571Z" fill="#33A96A"/>
<path opacity="0.56" d="M165.213 45.6735L224.122 51.8099L225.777 42.5591L166.868 36.4155L165.213 45.6735Z" fill="white"/>
<path d="M234.597 49.6569C235.842 49.1703 236.49 47.8499 236.042 46.7078C235.595 45.5657 234.223 45.0344 232.978 45.521C231.732 46.0076 231.085 47.328 231.532 48.4701C231.979 49.6122 233.351 50.1435 234.597 49.6569Z" stroke="white" stroke-width="1.15777" stroke-miterlimit="10"/>
<path d="M235.3 51.4267C235.25 51.3061 234.632 49.6248 234.632 49.6248" stroke="white" stroke-width="1.15777" stroke-miterlimit="10"/>
<path opacity="0.18" d="M237.438 66.6084L163.011 58.6487L163.402 57.4285L237.821 65.3882L237.438 66.6084Z" fill="#33A96A"/>
<path opacity="0.18" d="M189.473 56.8467L164.34 53.8742L164.851 51.6892L189.991 54.4276L189.473 56.8467Z" fill="#33A96A"/>
<path opacity="0.18" d="M236.515 71.5246L162.088 63.5649L162.472 62.3447L236.898 70.3044L236.515 71.5246Z" fill="#33A96A"/>
<g opacity="0.66">
<path opacity="0.18" d="M185.474 76.4834L160.341 73.518L160.852 71.3259L185.992 74.0643L185.474 76.4834Z" fill="#33A96A"/>
<path opacity="0.18" d="M233.24 86.6848L158.814 78.7251L159.205 77.4978L233.631 85.4646L233.24 86.6848Z" fill="#33A96A"/>
<path opacity="0.18" d="M231.543 92.3745L157.117 84.4148L157.508 83.1946L231.927 91.1543L231.543 92.3745Z" fill="#33A96A"/>
</g>
<path opacity="0.18" d="M230.101 104.669L155.753 94.9709L156.137 93.7578L230.485 103.456L230.101 104.669Z" fill="#33A96A"/>
<path d="M188.847 97.5036C188.847 97.5036 112.788 122.66 102.391 100.079C91.9942 77.4979 148.929 71.3118 148.929 71.3118C148.929 71.3118 82.3997 77.9307 97.3276 105.825C112.255 133.719 193.385 106.137 193.385 106.137L188.847 97.5036Z" fill="#FDCC4E"/>
<path d="M189.025 96.4608C189.057 97.4944 189.34 98.5047 189.849 99.4049L191.724 103.406C192.124 104.402 192.685 105.324 193.386 106.137C193.935 106.691 194.606 107.108 195.347 107.355C196.087 107.601 196.875 107.67 197.647 107.556C198.011 107.532 198.363 107.415 198.669 107.217C198.974 107.018 199.224 106.744 199.394 106.421C199.713 105.591 199.174 104.704 198.74 103.931C197.576 101.852 197.079 99.483 196.525 97.1703C196.098 95.3683 195.232 92.8286 193.031 92.5732C191.085 92.3462 189.139 94.5667 189.025 96.4608Z" fill="#E60303"/>
<path d="M208.129 87.1389C208.129 87.1389 192.036 72.4326 176.306 87.1389C176.306 87.1389 188.464 85.5711 192.214 92.2609L208.129 87.1389Z" fill="#FDCC4E"/>
<path d="M214.705 100.582C214.705 100.582 213.938 122.361 192.413 123.284C192.413 123.284 202.05 115.714 199.898 108.35L214.705 100.582Z" fill="#FDCC4E"/>
<path d="M192.214 92.2751C192.214 92.2751 242.956 63.1889 271.483 67.8427C271.483 67.8427 265.035 88.7848 199.877 108.351L192.214 92.2751Z" fill="white"/>
<path d="M271.519 67.8285C271.519 67.8285 265.07 88.7706 199.912 108.336L197.59 103.463L192.214 92.2751C192.214 92.2751 237.253 66.4239 266.32 67.3461C268.062 67.3934 269.798 67.5545 271.519 67.8285Z" fill="#F55656"/>
<path d="M271.519 67.8285C267.009 73.738 251.442 84.6276 219.442 96.2408C217.633 96.9029 215.77 97.565 213.853 98.2272C208.811 99.9676 203.39 101.713 197.59 103.463L192.221 92.2751C192.221 92.2751 197.767 88.9479 206.247 84.7198C210.721 82.4851 216.012 80.0022 221.736 77.6256C237.708 70.9925 257.067 65.1398 271.519 67.8285Z" fill="#E60303"/>
<path d="M232.417 78.6896C229.711 79.8176 226.671 79.6331 223.745 79.8247C222.876 79.8593 222.013 79.9951 221.175 80.2291C219.52 80.8688 218.011 81.8337 216.736 83.0667C216.563 83.1855 216.433 83.3573 216.367 83.5562C216.347 83.7628 216.397 83.9699 216.509 84.145C217.156 85.4639 217.902 86.7325 218.739 87.9404C219.733 89.3593 220.905 90.8703 220.869 92.6155C220.768 93.9519 220.249 95.2226 219.385 96.2478L219.172 96.5457C218.147 97.9237 217.035 99.2341 215.841 100.469C214.961 101.377 215.529 104.151 213.398 103.484C211.545 102.909 212.447 100.71 213.079 99.5536L213.789 98.2341L214.982 96.0278C215.891 94.3607 216.814 92.3814 216.047 90.6433C215.507 89.4302 214.265 88.6995 213.1 88.0469C210.902 86.7454 208.597 85.6324 206.211 84.7197C210.685 82.485 215.976 80.002 221.7 77.6255C225.437 77.9388 229.191 77.9933 232.935 77.7887C233.247 78.0866 232.807 78.5265 232.417 78.6896Z" fill="url(#paint7_linear)"/>
<path d="M226.096 91.2181C229.32 91.2181 231.934 88.6072 231.934 85.3866C231.934 82.166 229.32 79.5552 226.096 79.5552C222.872 79.5552 220.259 82.166 220.259 85.3866C220.259 88.6072 222.872 91.2181 226.096 91.2181Z" fill="white"/>
<path d="M226.096 89.1609C228.293 89.1609 230.073 87.3822 230.073 85.1881C230.073 82.994 228.293 81.2153 226.096 81.2153C223.9 81.2153 222.119 82.994 222.119 85.1881C222.119 87.3822 223.9 89.1609 226.096 89.1609Z" fill="url(#paint8_linear)"/>
<path d="M217.368 72.688C217.368 72.7234 216.53 72.5815 216.551 72.6241C216.743 72.8496 216.987 73.0249 217.262 73.1349C218.266 73.5401 219.296 73.8813 220.344 74.1565C221.388 74.2629 221.892 73.2768 222.219 72.4468C222.481 71.7799 222.751 71.113 223.028 70.4533C223.241 70.029 223.375 69.57 223.426 69.0983C223.436 68.99 223.422 68.8808 223.383 68.779C223.316 68.6483 223.202 68.5472 223.064 68.4953C222.854 68.4101 222.62 68.4101 222.41 68.4953C222.027 68.6584 221.849 69.0912 221.658 69.4601C221.21 70.3043 220.507 70.9924 220.124 71.865C219.837 71.883 219.554 71.7889 219.335 71.6025L218.093 70.7938C218.033 70.7462 217.962 70.7145 217.887 70.7016C217.825 70.6984 217.764 70.7104 217.708 70.7364C217.652 70.7623 217.604 70.8015 217.567 70.8506C217.344 71.1201 217.21 71.4523 217.183 71.8012C217.148 71.9791 217.148 72.1624 217.183 72.3403C217.228 72.4645 217.29 72.5816 217.368 72.688Z" fill="#FCAB9A"/>
<path d="M218.327 70.7585L218.767 71.0281C218.831 71.0281 218.895 71.099 218.916 71.17C218.93 71.221 218.93 71.275 218.916 71.3261L218.625 72.6172C218.537 73.1952 218.329 73.7484 218.014 74.2418C217.844 74.4759 216.594 73.6104 216.381 73.4969C215.849 73.1445 215.385 72.7 215.01 72.1845C214.837 71.9744 214.704 71.7338 214.62 71.475C214.492 70.8206 214.592 70.142 214.904 69.5525C215.401 68.5806 216.239 69.063 216.871 69.6589C217.321 70.0702 217.808 70.4383 218.327 70.7585Z" fill="#33A96A"/>
<path d="M210.309 102.98C210.331 103.073 210.38 103.157 210.451 103.221C211.464 104.208 212.671 104.974 213.995 105.47C214.075 105.515 214.166 105.539 214.258 105.541C214.346 105.523 214.425 105.473 214.479 105.401C214.534 105.33 214.561 105.241 214.556 105.151C214.538 104.971 214.472 104.8 214.364 104.654C214.104 104.242 213.812 103.851 213.491 103.484C213.191 103.237 213 102.883 212.958 102.498C212.986 102.306 213.036 102.118 213.107 101.937C213.32 101.136 211.985 100.973 211.424 101.164C211.107 101.356 210.84 101.621 210.646 101.937C210.452 102.253 210.337 102.611 210.309 102.98Z" fill="#FCAB9A"/>
<path d="M207.042 80.449C207.042 80.449 204.621 83.8258 207.113 86.8338C208.839 88.9195 211.431 90.3383 213.817 91.5301C214.236 91.7429 214.734 91.9132 215.138 92.1686C215.927 92.6652 215.444 93.0837 215.025 93.7435C213.974 95.4319 212.913 97.1085 211.843 98.7733C211.225 99.6162 210.8 100.585 210.6 101.611L213.306 102.434C214.764 99.9515 216.427 97.5951 218.277 95.3894C219.08 94.4387 220.117 93.2611 219.968 91.9416C219.781 90.7201 219.243 89.5791 218.419 88.657L213.356 82.783L207.042 80.449Z" fill="#473F47"/>
<path d="M218.803 64.3099C218.888 64.5582 219.129 64.7568 219.165 65.0193C219.2 65.2818 218.93 65.5939 218.753 65.8848C218.575 66.1756 218.455 66.7361 218.213 67.1263C218.17 67.2121 218.1 67.2818 218.014 67.3249C217.937 67.353 217.855 67.3674 217.773 67.3675C217.45 67.3582 217.13 67.3057 216.821 67.2114C216.766 67.1765 216.701 67.1615 216.637 67.1688C216.583 67.2006 216.542 67.2511 216.523 67.3107C216.162 68.057 215.989 68.8802 216.019 69.7085C216.019 69.9781 216.019 70.3187 215.799 70.4534C215.719 70.5057 215.624 70.5306 215.529 70.5244C214.904 70.5244 214.428 69.9639 214.108 69.4106C213.847 68.9132 213.644 68.387 213.505 67.8428C213.454 67.6849 213.435 67.5186 213.448 67.3533C213.481 67.1608 213.548 66.9757 213.647 66.807C213.962 66.1923 214.216 65.5484 214.407 64.8845C214.572 64.0147 214.869 63.1751 215.287 62.3944C215.45 62.1464 215.685 61.9554 215.962 61.8482C216.278 61.7792 216.607 61.7964 216.914 61.8978C217.555 62.0006 218.132 62.3461 218.526 62.8626C218.646 63.0471 218.703 63.9906 218.803 64.3099Z" fill="#FCAB9A"/>
<path d="M212.574 83.2229C212.032 83.3093 211.477 83.2778 210.948 83.1307C210.172 82.9755 209.379 82.9301 208.59 82.9959C208.122 83.1132 207.664 83.2674 207.22 83.457C206.86 83.5538 206.483 83.5716 206.115 83.5092C205.747 83.4467 205.397 83.3055 205.089 83.0952C205.089 82.9888 205.089 82.8753 205.089 82.7689C205.196 81.8182 204.798 80.4703 205.089 79.5552C206.133 75.9017 207.021 73.1704 209.102 70.0348C209.698 69.1338 212.049 67.9774 213.015 67.495C213.234 67.3772 213.476 67.3071 213.725 67.2893C214.011 67.3009 214.291 67.3786 214.542 67.5163C215.401 67.9349 215.735 68.7152 216.154 69.524C216.642 70.3479 216.974 71.2545 217.134 72.1985C217.24 73.4187 217.673 74.5609 216.977 75.6959C216.019 77.2921 214.428 78.3704 213.54 80.0943C213.383 80.3434 213.295 80.6299 213.285 80.9244C213.285 81.3358 213.576 81.7118 213.576 82.1233C213.547 82.3888 213.434 82.6383 213.254 82.8359C213.074 83.0334 212.836 83.1689 212.574 83.2229Z" fill="#33A96A"/>
<path d="M218.05 77.4695C218.391 77.6256 218.76 77.7604 219.051 77.8739C220.72 78.4051 222.451 78.7199 224.2 78.8103C226.4 79.0879 228.624 79.1283 230.833 78.9309C231.735 78.8618 232.61 78.5876 233.39 78.1293C233.617 77.9803 233.851 77.7107 233.738 77.4624C233.671 77.3518 233.572 77.2649 233.453 77.2141C232.601 76.7646 231.639 76.5631 230.677 76.6324C230.677 76.299 230.591 75.8733 230.265 75.8449C229.938 75.8166 229.746 76.2635 229.555 76.5544C229.129 77.2638 228.134 77.3418 227.339 77.3347C225.5 77.3617 223.665 77.1736 221.871 76.7743C220.971 76.5599 220.099 76.2433 219.271 75.8308C218.739 75.5612 217.666 74.4474 217.141 75.0433C216.615 75.6392 216.125 76.0365 216.835 76.6679C217.197 76.995 217.607 77.2653 218.05 77.4695Z" fill="#FCAB9A"/>
<path d="M215.28 70.6236C215.28 70.6236 218.064 74.5467 218.469 74.7808C218.874 75.0149 215.969 77.8668 215.969 77.8668C215.969 77.8668 212.603 74.2275 212.212 72.3688C211.822 70.5101 213.562 69.2331 215.28 70.6236Z" fill="#33A96A"/>
<path d="M218.504 62.4796C218.385 62.6429 218.233 62.78 218.058 62.8824C217.884 62.9849 217.69 63.0506 217.489 63.0755C217.139 63.1311 216.785 63.162 216.431 63.1677C216.431 63.1677 216.367 63.1677 216.346 63.1677C216.333 63.1821 216.323 63.199 216.317 63.2172C216.311 63.2355 216.308 63.2549 216.31 63.2741C216.295 63.5466 216.224 63.8131 216.102 64.0571C215.98 64.3012 215.809 64.5176 215.6 64.6929C215.545 64.7274 215.501 64.7765 215.472 64.8348C215.443 64.9176 215.443 65.0075 215.472 65.0902C215.522 65.3742 215.522 65.6646 215.472 65.9486C215.432 66.237 215.297 66.5039 215.089 66.7077C215.037 66.7434 214.999 66.7961 214.982 66.8567C214.982 66.9094 214.997 66.9611 215.025 67.0057C215.122 67.3021 215.102 67.6248 214.968 67.9066C214.701 67.7019 214.391 67.5588 214.062 67.4877C213.733 67.4165 213.393 67.4191 213.065 67.4952C212.865 67.5123 212.676 67.5917 212.525 67.7222C211.573 68.7225 210.792 69.9072 209.791 70.872C209.365 71.2835 208.889 71.6453 208.491 72.0922C207.891 72.8229 207.412 73.6442 207.071 74.5255C206.81 75.2162 206.464 75.8716 206.041 76.4764C205.828 76.777 205.558 77.0327 205.246 77.2287C204.934 77.4247 204.586 77.5572 204.223 77.6186C203.879 77.6469 203.533 77.6035 203.206 77.4911C202.88 77.3788 202.58 77.1999 202.327 76.9659C201.883 76.5599 201.567 76.0345 201.416 75.453C201.265 74.8714 201.285 74.2586 201.475 73.6884C201.567 73.5118 201.592 73.3076 201.546 73.1138C201.49 73.0065 201.413 72.9122 201.318 72.8371C200.883 72.384 200.64 71.7803 200.64 71.1522C200.64 70.5242 200.883 69.9205 201.318 69.4673C201.794 69.0204 202.937 68.5877 203.001 67.8499C203.065 67.1121 202.405 66.3814 202.675 65.5301C202.772 65.2712 202.914 65.0312 203.094 64.8206C203.436 64.3182 203.9 63.9106 204.443 63.6359C204.992 63.4511 205.568 63.3576 206.147 63.3592C208.008 63.2315 209.954 62.6498 211.183 61.231C211.459 60.8633 211.763 60.5171 212.092 60.1952C212.477 59.8975 212.916 59.676 213.384 59.5426C214.511 59.112 215.754 59.0944 216.892 59.4929C217.288 59.6579 217.641 59.9102 217.925 60.2308C218.209 60.5515 218.417 60.9322 218.533 61.3445C218.61 61.5247 218.647 61.7193 218.642 61.9151C218.637 62.1109 218.59 62.3034 218.504 62.4796Z" fill="#FC682D"/>
<path d="M218.299 65.5514C218.025 65.5422 217.753 65.5185 217.482 65.4805C217.404 65.6294 217.759 66.1899 217.837 66.2324C217.874 66.2649 217.922 66.2828 217.972 66.2828C218.021 66.2828 218.069 66.2649 218.107 66.2324C218.138 66.1877 218.16 66.137 218.171 66.0835L218.299 65.5443" fill="white"/>
<path d="M217.659 64.3453C217.777 64.3453 217.872 64.25 217.872 64.1325C217.872 64.015 217.777 63.9197 217.659 63.9197C217.542 63.9197 217.446 64.015 217.446 64.1325C217.446 64.25 217.542 64.3453 217.659 64.3453Z" fill="#231F20"/>
<path d="M222.732 66.8152L222.425 66.7568C222.233 66.7201 222.047 66.8464 222.01 67.0389L221.62 69.0878C221.583 69.2802 221.709 69.4659 221.902 69.5026L222.209 69.5609C222.402 69.5976 222.588 69.4713 222.624 69.2788L223.015 67.23C223.052 67.0375 222.925 66.8518 222.732 66.8152Z" fill="#33A96A"/>
<path d="M222.112 66.9844C221.925 67.0042 221.748 67.0749 221.599 67.1888C221.45 67.3026 221.335 67.4553 221.267 67.63C221.208 67.8575 221.22 68.0975 221.301 68.318C221.383 68.5385 221.529 68.7291 221.721 68.8644C222.112 69.1262 222.56 69.2893 223.028 69.3397C223.096 69.3631 223.169 69.3701 223.241 69.3603C223.312 69.3504 223.381 69.3239 223.44 69.2829C223.501 69.2157 223.541 69.1317 223.554 69.0417C223.665 68.7256 223.711 68.3901 223.689 68.0556C223.591 67.722 223.381 67.4327 223.093 67.2372C222.805 67.0418 222.458 66.9524 222.112 66.9844Z" fill="#FCAB9A"/>
<path d="M220.819 65.4589L220.748 66.2676C220.725 66.3748 220.745 66.4869 220.803 66.5798C220.861 66.6726 220.954 66.7389 221.061 66.7642C222.422 66.8595 223.753 67.2059 224.988 67.7858C225.658 68.1621 226.294 68.594 226.891 69.077C227.133 69.2685 227.481 69.077 227.538 68.6655L228.17 64.409C228.227 64.033 227.957 63.7705 227.673 63.9124C226.487 64.5154 223.823 65.6221 221.359 64.941C221.096 64.8772 220.848 65.1255 220.819 65.4589Z" fill="#33A96A"/>
<path d="M210.479 102.108C210.139 102.326 209.888 102.658 209.769 103.044C209.73 103.164 209.73 103.293 209.769 103.413C209.819 103.52 209.895 103.612 209.989 103.683C211.125 104.693 212.403 105.532 213.782 106.173C213.957 106.262 214.147 106.318 214.343 106.336C214.44 106.347 214.538 106.332 214.628 106.294C214.717 106.255 214.795 106.194 214.854 106.116C214.922 106.002 214.956 105.872 214.954 105.74C214.961 105.496 214.92 105.254 214.831 105.027C214.743 104.8 214.609 104.593 214.439 104.419C214.268 104.245 214.064 104.106 213.839 104.013C213.614 103.919 213.372 103.872 213.128 103.874C212.954 103.888 212.778 103.888 212.603 103.874C212.439 103.833 212.285 103.76 212.148 103.661C211.775 103.444 211.423 103.192 211.097 102.909C210.877 102.653 210.671 102.386 210.479 102.108Z" fill="#473F47"/>
<defs>
<linearGradient id="paint0_linear" x1="-22.017" y1="-25.3751" x2="510.803" y2="373.549" gradientUnits="userSpaceOnUse">
<stop offset="0.01"/>
<stop offset="0.08" stop-opacity="0.69"/>
<stop offset="0.21" stop-opacity="0.32"/>
<stop offset="1" stop-opacity="0"/>
</linearGradient>
<linearGradient id="paint1_linear" x1="27803.6" y1="10065.5" x2="29841.6" y2="26942.5" gradientUnits="userSpaceOnUse">
<stop offset="0.01"/>
<stop offset="0.08" stop-opacity="0.69"/>
<stop offset="0.21" stop-opacity="0.32"/>
<stop offset="1" stop-opacity="0"/>
</linearGradient>
<linearGradient id="paint2_linear" x1="23169" y1="2662.19" x2="22641.3" y2="14636.5" gradientUnits="userSpaceOnUse">
<stop offset="0.01"/>
<stop offset="0.08" stop-opacity="0.69"/>
<stop offset="0.21" stop-opacity="0.32"/>
<stop offset="1" stop-opacity="0"/>
</linearGradient>
<linearGradient id="paint3_linear" x1="22986.4" y1="2658.76" x2="23203.2" y2="8573.35" gradientUnits="userSpaceOnUse">
<stop offset="0.01"/>
<stop offset="0.08" stop-opacity="0.69"/>
<stop offset="0.21" stop-opacity="0.32"/>
<stop offset="1" stop-opacity="0"/>
</linearGradient>
<linearGradient id="paint4_linear" x1="8422.24" y1="2842.02" x2="8069.6" y2="8795.36" gradientUnits="userSpaceOnUse">
<stop offset="0.01"/>
<stop offset="0.08" stop-opacity="0.69"/>
<stop offset="0.21" stop-opacity="0.32"/>
<stop offset="1" stop-opacity="0"/>
</linearGradient>
<linearGradient id="paint5_linear" x1="3900.17" y1="1988.99" x2="3847.36" y2="2446.09" gradientUnits="userSpaceOnUse">
<stop offset="0.01"/>
<stop offset="0.08" stop-opacity="0.69"/>
<stop offset="0.21" stop-opacity="0.32"/>
<stop offset="1" stop-opacity="0"/>
</linearGradient>
<linearGradient id="paint6_linear" x1="27744.2" y1="2930.88" x2="33684.9" y2="71066.6" gradientUnits="userSpaceOnUse">
<stop offset="0.01"/>
<stop offset="0.08" stop-opacity="0.69"/>
<stop offset="0.21" stop-opacity="0.32"/>
<stop offset="1" stop-opacity="0"/>
</linearGradient>
<linearGradient id="paint7_linear" x1="5985.89" y1="4250.3" x2="9560.32" y2="3964.26" gradientUnits="userSpaceOnUse">
<stop offset="0.01"/>
<stop offset="0.08" stop-opacity="0.69"/>
<stop offset="0.21" stop-opacity="0.32"/>
<stop offset="1" stop-opacity="0"/>
</linearGradient>
<linearGradient id="paint8_linear" x1="1883.85" y1="712.884" x2="2850.48" y2="1561.05" gradientUnits="userSpaceOnUse">
<stop offset="0.01"/>
<stop offset="0.08" stop-opacity="0.69"/>
<stop offset="0.21" stop-opacity="0.32"/>
<stop offset="1" stop-opacity="0"/>
</linearGradient>
</defs>
</svg>
