<svg width="10" height="9" viewBox="0 0 10 9" fill="none" xmlns="http://www.w3.org/2000/svg">
<path d="M9.84016 3.7088L6.22881 0.157035C6.12572 0.0556499 5.98832 0 5.84182 0C5.69516 0 5.55784 0.0557299 5.45475 0.157035L5.12687 0.479581C5.02386 0.580806 4.96711 0.716013 4.96711 0.860175C4.96711 1.00426 5.02386 1.14402 5.12687 1.24525L7.23368 3.3218H0.540239C0.238453 3.3218 0 3.55416 0 3.85104V4.30703C0 4.60391 0.238453 4.85969 0.540239 4.85969H7.25758L5.12695 6.94784C5.02394 7.04923 4.96719 7.18076 4.96719 7.32492C4.96719 7.46892 5.02394 7.60237 5.12695 7.70368L5.45483 8.02518C5.55792 8.12657 5.69524 8.18182 5.8419 8.18182C5.98841 8.18182 6.1258 8.12585 6.22889 8.02446L9.84024 4.47278C9.94358 4.37108 10.0004 4.23531 10 4.09099C10.0003 3.94619 9.94358 3.81034 9.84016 3.7088Z" fill="#FBFBFB"/>
</svg>
