<svg width="13" height="17" viewBox="0 0 13 17" fill="none" xmlns="http://www.w3.org/2000/svg">
<path d="M12.5208 6.375H11.4583V4.95832C11.4583 2.22428 9.23408 0 6.5 0C3.76592 0 1.54168 2.22428 1.54168 4.95832V6.375H0.479178C0.283412 6.375 0.125 6.53341 0.125 6.72918V15.5834C0.125 16.3647 0.760342 17 1.54168 17H11.4584C12.2397 17 12.875 16.3647 12.875 15.5833V6.72918C12.875 6.53341 12.7166 6.375 12.5208 6.375ZM7.56044 13.7734C7.5715 13.8734 7.53936 13.9737 7.47225 14.0487C7.40515 14.1238 7.30899 14.1667 7.20836 14.1667H5.79168C5.69104 14.1667 5.59488 14.1238 5.52778 14.0487C5.46068 13.9737 5.4285 13.8734 5.43959 13.7734L5.66302 11.7643C5.30021 11.5004 5.08336 11.0829 5.08336 10.625C5.08336 9.8437 5.7187 9.20832 6.50003 9.20832C7.28137 9.20832 7.91671 9.84366 7.91671 10.625C7.91671 11.0829 7.69986 11.5004 7.33705 11.7643L7.56044 13.7734ZM9.33332 6.375H3.66668V4.95832C3.66668 3.39605 4.93773 2.125 6.5 2.125C8.06227 2.125 9.33332 3.39605 9.33332 4.95832V6.375Z" fill="#0E0E0E"/>
</svg>
